<?xml version="1.0" encoding="UTF-8"?>
<svg xmlns="http://www.w3.org/2000/svg" xmlns:xlink="http://www.w3.org/1999/xlink" width="3840" height="2160" viewBox="0 0 3840 2160">
<defs>
<g>
<g id="glyph-0-0">
<path d="M 2.40625 -6.214844 C 3.210938 -6.214844 3.789062 -5.882812 4.148438 -5.222656 C 4.425781 -4.710938 4.566406 -4.007812 4.566406 -3.117188 C 4.566406 -2.273438 4.441406 -1.574219 4.1875 -1.019531 C 3.824219 -0.226562 3.226562 0.167969 2.398438 0.167969 C 1.652344 0.167969 1.097656 -0.15625 0.734375 -0.804688 C 0.429688 -1.34375 0.277344 -2.070312 0.277344 -2.980469 C 0.277344 -3.6875 0.367188 -4.292969 0.550781 -4.800781 C 0.890625 -5.742188 1.511719 -6.214844 2.40625 -6.214844 Z M 2.394531 -0.542969 C 2.800781 -0.542969 3.125 -0.722656 3.363281 -1.082031 C 3.605469 -1.441406 3.722656 -2.109375 3.722656 -3.085938 C 3.722656 -3.792969 3.636719 -4.375 3.464844 -4.828125 C 3.289062 -5.285156 2.953125 -5.511719 2.453125 -5.511719 C 1.992188 -5.511719 1.65625 -5.296875 1.441406 -4.863281 C 1.230469 -4.429688 1.125 -3.792969 1.125 -2.953125 C 1.125 -2.320312 1.191406 -1.808594 1.328125 -1.421875 C 1.535156 -0.835938 1.890625 -0.542969 2.394531 -0.542969 Z "/>
</g>
<g id="glyph-0-1">
<path d="M 0.851562 -4.402344 L 0.851562 -5 C 1.414062 -5.054688 1.808594 -5.148438 2.03125 -5.277344 C 2.253906 -5.40625 2.421875 -5.710938 2.53125 -6.191406 L 3.148438 -6.191406 L 3.148438 0 L 2.3125 0 L 2.3125 -4.402344 Z "/>
</g>
<g id="glyph-0-2">
<rect x="0" y="0" width="0" height="0" mask="url(#mask-0)"/>
</g>
</g>
<image id="source-32" x="0" y="0" width="0" height="0"/>
<mask id="mask-0">
<use xlink:href="#source-32"/>
</mask>
</defs>
<g fill="rgb(100%, 100%, 100%)" fill-opacity="1">
<use xlink:href="#glyph-0-0" x="30" y="26.844727"/>
<use xlink:href="#glyph-0-1" x="35" y="26.844727"/>
<use xlink:href="#glyph-0-1" x="40" y="26.844727"/>
<use xlink:href="#glyph-0-0" x="45" y="26.844727"/>
<use xlink:href="#glyph-0-1" x="50" y="26.844727"/>
<use xlink:href="#glyph-0-0" x="55" y="26.844727"/>
<use xlink:href="#glyph-0-0" x="60" y="26.844727"/>
<use xlink:href="#glyph-0-0" x="65" y="26.844727"/>
<use xlink:href="#glyph-0-2" x="70" y="26.844727"/>
<use xlink:href="#glyph-0-0" x="72" y="26.844727"/>
<use xlink:href="#glyph-0-1" x="77" y="26.844727"/>
<use xlink:href="#glyph-0-1" x="82" y="26.844727"/>
<use xlink:href="#glyph-0-0" x="87" y="26.844727"/>
<use xlink:href="#glyph-0-0" x="92" y="26.844727"/>
<use xlink:href="#glyph-0-1" x="97" y="26.844727"/>
<use xlink:href="#glyph-0-0" x="102" y="26.844727"/>
<use xlink:href="#glyph-0-1" x="107" y="26.844727"/>
<use xlink:href="#glyph-0-2" x="112" y="26.844727"/>
<use xlink:href="#glyph-0-0" x="114" y="26.844727"/>
<use xlink:href="#glyph-0-1" x="119" y="26.844727"/>
<use xlink:href="#glyph-0-1" x="124" y="26.844727"/>
<use xlink:href="#glyph-0-0" x="129" y="26.844727"/>
<use xlink:href="#glyph-0-1" x="134" y="26.844727"/>
<use xlink:href="#glyph-0-1" x="139" y="26.844727"/>
<use xlink:href="#glyph-0-0" x="144" y="26.844727"/>
<use xlink:href="#glyph-0-0" x="149" y="26.844727"/>
<use xlink:href="#glyph-0-2" x="154" y="26.844727"/>
<use xlink:href="#glyph-0-0" x="156" y="26.844727"/>
<use xlink:href="#glyph-0-1" x="161" y="26.844727"/>
<use xlink:href="#glyph-0-1" x="166" y="26.844727"/>
<use xlink:href="#glyph-0-0" x="171" y="26.844727"/>
<use xlink:href="#glyph-0-1" x="176" y="26.844727"/>
<use xlink:href="#glyph-0-1" x="181" y="26.844727"/>
<use xlink:href="#glyph-0-0" x="186" y="26.844727"/>
<use xlink:href="#glyph-0-0" x="191" y="26.844727"/>
<use xlink:href="#glyph-0-2" x="196" y="26.844727"/>
</g>
<g fill="rgb(100%, 100%, 100%)" fill-opacity="1">
<use xlink:href="#glyph-0-2" x="30" y="35.512695"/>
<use xlink:href="#glyph-0-0" x="32" y="35.512695"/>
<use xlink:href="#glyph-0-1" x="37" y="35.512695"/>
<use xlink:href="#glyph-0-1" x="42" y="35.512695"/>
<use xlink:href="#glyph-0-0" x="47" y="35.512695"/>
<use xlink:href="#glyph-0-1" x="52" y="35.512695"/>
<use xlink:href="#glyph-0-1" x="57" y="35.512695"/>
<use xlink:href="#glyph-0-1" x="61" y="35.512695"/>
<use xlink:href="#glyph-0-1" x="65" y="35.512695"/>
<use xlink:href="#glyph-0-2" x="70" y="35.512695"/>
<use xlink:href="#glyph-0-0" x="72" y="35.512695"/>
<use xlink:href="#glyph-0-0" x="77" y="35.512695"/>
<use xlink:href="#glyph-0-1" x="82" y="35.512695"/>
<use xlink:href="#glyph-0-0" x="87" y="35.512695"/>
<use xlink:href="#glyph-0-0" x="92" y="35.512695"/>
<use xlink:href="#glyph-0-0" x="97" y="35.512695"/>
<use xlink:href="#glyph-0-0" x="102" y="35.512695"/>
<use xlink:href="#glyph-0-0" x="107" y="35.512695"/>
<use xlink:href="#glyph-0-2" x="112" y="35.512695"/>
<use xlink:href="#glyph-0-0" x="114" y="35.512695"/>
<use xlink:href="#glyph-0-1" x="119" y="35.512695"/>
<use xlink:href="#glyph-0-1" x="124" y="35.512695"/>
<use xlink:href="#glyph-0-1" x="128" y="35.512695"/>
<use xlink:href="#glyph-0-0" x="133" y="35.512695"/>
<use xlink:href="#glyph-0-1" x="138" y="35.512695"/>
<use xlink:href="#glyph-0-1" x="143" y="35.512695"/>
<use xlink:href="#glyph-0-1" x="147" y="35.512695"/>
<use xlink:href="#glyph-0-2" x="152" y="35.512695"/>
<use xlink:href="#glyph-0-0" x="154" y="35.512695"/>
<use xlink:href="#glyph-0-1" x="159" y="35.512695"/>
<use xlink:href="#glyph-0-1" x="164" y="35.512695"/>
<use xlink:href="#glyph-0-1" x="168" y="35.512695"/>
<use xlink:href="#glyph-0-0" x="173" y="35.512695"/>
<use xlink:href="#glyph-0-1" x="178" y="35.512695"/>
<use xlink:href="#glyph-0-1" x="183" y="35.512695"/>
<use xlink:href="#glyph-0-1" x="187" y="35.512695"/>
<use xlink:href="#glyph-0-2" x="192" y="35.512695"/>
<use xlink:href="#glyph-0-2" x="194" y="35.512695"/>
</g>
<g fill="rgb(100%, 100%, 100%)" fill-opacity="1">
<use xlink:href="#glyph-0-0" x="30" y="44.176758"/>
<use xlink:href="#glyph-0-1" x="35" y="44.176758"/>
<use xlink:href="#glyph-0-1" x="40" y="44.176758"/>
<use xlink:href="#glyph-0-1" x="44" y="44.176758"/>
<use xlink:href="#glyph-0-0" x="49" y="44.176758"/>
<use xlink:href="#glyph-0-0" x="54" y="44.176758"/>
<use xlink:href="#glyph-0-1" x="59" y="44.176758"/>
<use xlink:href="#glyph-0-0" x="64" y="44.176758"/>
<use xlink:href="#glyph-0-2" x="69" y="44.176758"/>
<use xlink:href="#glyph-0-0" x="71" y="44.176758"/>
<use xlink:href="#glyph-0-1" x="76" y="44.176758"/>
<use xlink:href="#glyph-0-1" x="81" y="44.176758"/>
<use xlink:href="#glyph-0-0" x="86" y="44.176758"/>
<use xlink:href="#glyph-0-1" x="91" y="44.176758"/>
<use xlink:href="#glyph-0-1" x="96" y="44.176758"/>
<use xlink:href="#glyph-0-0" x="101" y="44.176758"/>
<use xlink:href="#glyph-0-0" x="106" y="44.176758"/>
<use xlink:href="#glyph-0-2" x="111" y="44.176758"/>
<use xlink:href="#glyph-0-0" x="113" y="44.176758"/>
<use xlink:href="#glyph-0-1" x="118" y="44.176758"/>
<use xlink:href="#glyph-0-1" x="123" y="44.176758"/>
<use xlink:href="#glyph-0-0" x="128" y="44.176758"/>
<use xlink:href="#glyph-0-0" x="133" y="44.176758"/>
<use xlink:href="#glyph-0-1" x="138" y="44.176758"/>
<use xlink:href="#glyph-0-0" x="143" y="44.176758"/>
<use xlink:href="#glyph-0-0" x="148" y="44.176758"/>
<use xlink:href="#glyph-0-2" x="153" y="44.176758"/>
<use xlink:href="#glyph-0-0" x="155" y="44.176758"/>
<use xlink:href="#glyph-0-0" x="160" y="44.176758"/>
<use xlink:href="#glyph-0-1" x="165" y="44.176758"/>
<use xlink:href="#glyph-0-0" x="170" y="44.176758"/>
<use xlink:href="#glyph-0-0" x="175" y="44.176758"/>
<use xlink:href="#glyph-0-0" x="180" y="44.176758"/>
<use xlink:href="#glyph-0-0" x="185" y="44.176758"/>
<use xlink:href="#glyph-0-1" x="190" y="44.176758"/>
</g>
</svg>
