<?xml version="1.0" encoding="UTF-8"?>
<svg xmlns="http://www.w3.org/2000/svg" xmlns:xlink="http://www.w3.org/1999/xlink" width="3840" height="2160" viewBox="0 0 3840 2160">
<defs>
<g>
<g id="glyph-0-0">
<path d="M 0.113281 -0.183594 C 0.492188 -0.226562 0.738281 -0.292969 0.847656 -0.386719 C 0.960938 -0.484375 1.015625 -0.722656 1.015625 -1.113281 L 1.015625 -5.675781 C 1.015625 -6.039062 0.960938 -6.277344 0.851562 -6.386719 C 0.742188 -6.5 0.496094 -6.570312 0.113281 -6.597656 L 0.113281 -6.785156 L 3.015625 -6.785156 L 3.015625 -6.597656 C 2.636719 -6.578125 2.382812 -6.515625 2.257812 -6.410156 C 2.128906 -6.308594 2.0625 -6.085938 2.0625 -5.746094 L 2.0625 -0.816406 C 2.0625 -0.703125 2.082031 -0.613281 2.121094 -0.546875 C 2.160156 -0.484375 2.242188 -0.441406 2.375 -0.425781 C 2.449219 -0.414062 2.53125 -0.410156 2.617188 -0.40625 C 2.703125 -0.402344 2.863281 -0.402344 3.09375 -0.402344 C 4.007812 -0.402344 4.621094 -0.476562 4.941406 -0.625 C 5.261719 -0.777344 5.574219 -1.160156 5.875 -1.777344 L 6.136719 -1.777344 L 5.632812 0 L 0.113281 0 Z "/>
</g>
<g id="glyph-0-1">
<path d="M 0.261719 -2.324219 C 0.261719 -2.988281 0.472656 -3.550781 0.894531 -4.007812 C 1.316406 -4.46875 1.859375 -4.699219 2.523438 -4.699219 C 3.183594 -4.699219 3.734375 -4.480469 4.167969 -4.046875 C 4.601562 -3.613281 4.816406 -3.035156 4.816406 -2.3125 C 4.816406 -1.648438 4.609375 -1.070312 4.1875 -0.582031 C 3.765625 -0.0898438 3.222656 0.15625 2.554688 0.15625 C 1.914062 0.15625 1.371094 -0.0820312 0.925781 -0.550781 C 0.480469 -1.023438 0.261719 -1.613281 0.261719 -2.324219 Z M 2.382812 -4.398438 C 2.121094 -4.398438 1.890625 -4.308594 1.699219 -4.136719 C 1.363281 -3.832031 1.195312 -3.308594 1.195312 -2.5625 C 1.195312 -1.96875 1.332031 -1.414062 1.601562 -0.902344 C 1.871094 -0.386719 2.242188 -0.128906 2.71875 -0.128906 C 3.09375 -0.128906 3.382812 -0.300781 3.582031 -0.644531 C 3.785156 -0.988281 3.886719 -1.441406 3.886719 -2 C 3.886719 -2.578125 3.757812 -3.121094 3.5 -3.632812 C 3.242188 -4.140625 2.871094 -4.398438 2.382812 -4.398438 Z "/>
</g>
<g id="glyph-0-2">
<path d="M 0.0195312 -0.140625 C 0.339844 -0.164062 0.550781 -0.21875 0.652344 -0.300781 C 0.753906 -0.382812 0.804688 -0.5625 0.804688 -0.839844 L 0.804688 -5.859375 C 0.804688 -6.097656 0.765625 -6.246094 0.6875 -6.308594 C 0.605469 -6.375 0.492188 -6.40625 0.339844 -6.40625 C 0.277344 -6.40625 0.222656 -6.402344 0.175781 -6.402344 C 0.128906 -6.398438 0.078125 -6.390625 0.0195312 -6.386719 L 0.0195312 -6.527344 L 0.472656 -6.644531 C 0.816406 -6.734375 1.105469 -6.820312 1.347656 -6.902344 C 1.496094 -6.953125 1.578125 -6.976562 1.601562 -6.976562 C 1.621094 -6.976562 1.636719 -6.972656 1.640625 -6.964844 C 1.644531 -6.957031 1.648438 -6.9375 1.648438 -6.90625 L 1.648438 -2.695312 L 3.035156 -3.917969 C 3.136719 -4.007812 3.203125 -4.078125 3.238281 -4.132812 C 3.273438 -4.183594 3.289062 -4.230469 3.289062 -4.273438 C 3.289062 -4.347656 3.253906 -4.398438 3.175781 -4.417969 C 3.101562 -4.4375 2.96875 -4.453125 2.773438 -4.460938 L 2.773438 -4.601562 L 4.863281 -4.601562 L 4.863281 -4.460938 C 4.488281 -4.4375 4.1875 -4.363281 3.960938 -4.238281 C 3.734375 -4.113281 3.296875 -3.757812 2.65625 -3.164062 L 2.359375 -2.894531 L 3.285156 -1.691406 C 3.757812 -1.078125 4.117188 -0.671875 4.355469 -0.46875 C 4.597656 -0.265625 4.851562 -0.152344 5.125 -0.128906 L 5.125 0 L 2.894531 0 L 2.894531 -0.140625 L 3.070312 -0.148438 C 3.125 -0.152344 3.179688 -0.164062 3.226562 -0.183594 C 3.273438 -0.203125 3.296875 -0.238281 3.296875 -0.285156 C 3.296875 -0.320312 3.285156 -0.355469 3.269531 -0.386719 C 3.253906 -0.417969 3.230469 -0.457031 3.199219 -0.496094 L 1.648438 -2.539062 L 1.648438 -0.6875 C 1.648438 -0.457031 1.734375 -0.300781 1.902344 -0.226562 C 2.003906 -0.179688 2.175781 -0.152344 2.417969 -0.148438 L 2.417969 0 L 0.0195312 0 Z "/>
</g>
<g id="glyph-0-3">
<path d="M 0.53125 -1.578125 L 0.695312 -1.578125 C 0.773438 -1.195312 0.875 -0.90625 1.007812 -0.699219 C 1.242188 -0.328125 1.582031 -0.140625 2.035156 -0.140625 C 2.285156 -0.140625 2.480469 -0.210938 2.625 -0.347656 C 2.769531 -0.488281 2.84375 -0.667969 2.84375 -0.886719 C 2.84375 -1.027344 2.804688 -1.160156 2.71875 -1.292969 C 2.636719 -1.421875 2.488281 -1.550781 2.277344 -1.671875 L 1.71875 -1.992188 C 1.308594 -2.214844 1.003906 -2.4375 0.8125 -2.660156 C 0.617188 -2.882812 0.519531 -3.148438 0.519531 -3.449219 C 0.519531 -3.824219 0.65625 -4.132812 0.921875 -4.371094 C 1.1875 -4.613281 1.523438 -4.734375 1.929688 -4.734375 C 2.105469 -4.734375 2.300781 -4.699219 2.511719 -4.632812 C 2.722656 -4.566406 2.84375 -4.53125 2.871094 -4.53125 C 2.929688 -4.53125 2.972656 -4.539062 3 -4.558594 C 3.027344 -4.574219 3.050781 -4.601562 3.070312 -4.636719 L 3.191406 -4.636719 L 3.226562 -3.242188 L 3.070312 -3.242188 C 3.003906 -3.566406 2.914062 -3.816406 2.800781 -3.996094 C 2.59375 -4.332031 2.292969 -4.496094 1.902344 -4.496094 C 1.667969 -4.496094 1.484375 -4.425781 1.351562 -4.28125 C 1.21875 -4.136719 1.152344 -3.96875 1.152344 -3.777344 C 1.152344 -3.46875 1.382812 -3.195312 1.84375 -2.953125 L 2.503906 -2.597656 C 3.214844 -2.210938 3.570312 -1.761719 3.570312 -1.246094 C 3.570312 -0.851562 3.421875 -0.53125 3.128906 -0.28125 C 2.832031 -0.03125 2.445312 0.09375 1.96875 0.09375 C 1.769531 0.09375 1.539062 0.0625 1.289062 -0.00390625 C 1.035156 -0.0703125 0.882812 -0.105469 0.835938 -0.105469 C 0.796875 -0.105469 0.761719 -0.0898438 0.730469 -0.0625 C 0.699219 -0.0351562 0.679688 0 0.660156 0.0390625 L 0.53125 0.0390625 Z "/>
</g>
<g id="glyph-0-4">
<rect x="0" y="0" width="0" height="0" mask="url(#mask-0)"/>
</g>
<g id="glyph-0-5">
<path d="M 2.941406 -2.773438 C 2.554688 -2.648438 2.238281 -2.507812 1.988281 -2.355469 C 1.507812 -2.058594 1.265625 -1.71875 1.265625 -1.34375 C 1.265625 -1.039062 1.367188 -0.816406 1.566406 -0.671875 C 1.699219 -0.578125 1.84375 -0.53125 2.003906 -0.53125 C 2.222656 -0.53125 2.433594 -0.59375 2.636719 -0.714844 C 2.839844 -0.839844 2.941406 -0.996094 2.941406 -1.1875 Z M 0.375 -0.996094 C 0.375 -1.480469 0.617188 -1.882812 1.101562 -2.207031 C 1.410156 -2.410156 2.023438 -2.679688 2.941406 -3.023438 L 2.941406 -3.449219 C 2.941406 -3.789062 2.90625 -4.027344 2.839844 -4.160156 C 2.726562 -4.386719 2.492188 -4.496094 2.132812 -4.496094 C 1.964844 -4.496094 1.800781 -4.453125 1.648438 -4.367188 C 1.496094 -4.277344 1.417969 -4.152344 1.417969 -3.996094 C 1.417969 -3.957031 1.425781 -3.890625 1.441406 -3.792969 C 1.457031 -3.699219 1.46875 -3.636719 1.46875 -3.609375 C 1.46875 -3.421875 1.40625 -3.292969 1.28125 -3.21875 C 1.210938 -3.175781 1.128906 -3.15625 1.03125 -3.15625 C 0.882812 -3.15625 0.765625 -3.203125 0.6875 -3.304688 C 0.605469 -3.402344 0.566406 -3.511719 0.566406 -3.632812 C 0.566406 -3.867188 0.710938 -4.109375 1 -4.363281 C 1.289062 -4.621094 1.710938 -4.746094 2.269531 -4.746094 C 2.917969 -4.746094 3.355469 -4.539062 3.585938 -4.117188 C 3.710938 -3.886719 3.769531 -3.550781 3.769531 -3.109375 L 3.769531 -1.101562 C 3.769531 -0.90625 3.785156 -0.773438 3.8125 -0.699219 C 3.855469 -0.570312 3.945312 -0.503906 4.082031 -0.503906 C 4.160156 -0.503906 4.222656 -0.515625 4.273438 -0.539062 C 4.324219 -0.5625 4.410156 -0.621094 4.53125 -0.710938 L 4.53125 -0.449219 C 4.425781 -0.320312 4.308594 -0.214844 4.1875 -0.128906 C 4 -0.00390625 3.808594 0.0585938 3.617188 0.0585938 C 3.390625 0.0585938 3.222656 -0.0117188 3.121094 -0.160156 C 3.019531 -0.308594 2.964844 -0.484375 2.953125 -0.6875 C 2.699219 -0.464844 2.484375 -0.300781 2.304688 -0.195312 C 2 -0.015625 1.710938 0.0742188 1.4375 0.0742188 C 1.148438 0.0742188 0.902344 -0.0273438 0.691406 -0.226562 C 0.480469 -0.429688 0.375 -0.6875 0.375 -0.996094 Z "/>
</g>
<g id="glyph-0-6">
<path d="M 0.210938 -0.140625 C 0.519531 -0.171875 0.730469 -0.234375 0.839844 -0.328125 C 0.949219 -0.421875 1.007812 -0.609375 1.007812 -0.886719 L 1.007812 -5.78125 C 1.007812 -6 0.988281 -6.152344 0.953125 -6.234375 C 0.886719 -6.375 0.75 -6.445312 0.546875 -6.445312 C 0.5 -6.445312 0.449219 -6.441406 0.394531 -6.429688 C 0.339844 -6.421875 0.269531 -6.40625 0.183594 -6.386719 L 0.183594 -6.550781 C 0.636719 -6.671875 1.179688 -6.832031 1.8125 -7.03125 C 1.835938 -7.03125 1.851562 -7.023438 1.855469 -7 C 1.859375 -6.980469 1.863281 -6.9375 1.863281 -6.871094 L 1.863281 -0.867188 C 1.863281 -0.578125 1.914062 -0.386719 2.011719 -0.304688 C 2.113281 -0.21875 2.320312 -0.164062 2.632812 -0.140625 L 2.632812 0 L 0.210938 0 Z "/>
</g>
<g id="glyph-0-7">
<path d="M 0.839844 -6.464844 C 0.839844 -6.609375 0.890625 -6.734375 0.992188 -6.835938 C 1.09375 -6.941406 1.214844 -6.992188 1.363281 -6.992188 C 1.507812 -6.992188 1.628906 -6.941406 1.730469 -6.839844 C 1.832031 -6.738281 1.882812 -6.613281 1.882812 -6.464844 C 1.882812 -6.320312 1.832031 -6.199219 1.730469 -6.097656 C 1.628906 -5.996094 1.503906 -5.945312 1.363281 -5.945312 C 1.214844 -5.945312 1.089844 -5.996094 0.992188 -6.097656 C 0.890625 -6.199219 0.839844 -6.320312 0.839844 -6.464844 Z M 0.199219 -0.140625 C 0.558594 -0.171875 0.78125 -0.234375 0.875 -0.324219 C 0.96875 -0.410156 1.015625 -0.652344 1.015625 -1.042969 L 1.015625 -3.429688 C 1.015625 -3.648438 1 -3.796875 0.972656 -3.882812 C 0.921875 -4.019531 0.816406 -4.085938 0.65625 -4.085938 C 0.621094 -4.085938 0.582031 -4.082031 0.546875 -4.078125 C 0.511719 -4.070312 0.414062 -4.042969 0.246094 -3.996094 L 0.246094 -4.152344 L 0.460938 -4.222656 C 1.046875 -4.414062 1.453125 -4.554688 1.683594 -4.652344 C 1.777344 -4.691406 1.835938 -4.710938 1.863281 -4.710938 C 1.871094 -4.6875 1.875 -4.664062 1.875 -4.636719 L 1.875 -1.042969 C 1.875 -0.660156 1.917969 -0.421875 2.011719 -0.324219 C 2.101562 -0.226562 2.308594 -0.167969 2.632812 -0.140625 L 2.632812 0 L 0.199219 0 Z "/>
</g>
<g id="glyph-0-8">
<path d="M 2.609375 -4.617188 L 2.609375 -4.257812 L 1.585938 -4.257812 L 1.578125 -1.371094 C 1.578125 -1.117188 1.597656 -0.925781 1.644531 -0.796875 C 1.722656 -0.566406 1.878906 -0.449219 2.113281 -0.449219 C 2.234375 -0.449219 2.339844 -0.480469 2.425781 -0.535156 C 2.515625 -0.59375 2.617188 -0.683594 2.730469 -0.804688 L 2.859375 -0.695312 L 2.75 -0.546875 C 2.574219 -0.3125 2.390625 -0.148438 2.199219 -0.0507812 C 2.003906 0.046875 1.816406 0.09375 1.636719 0.09375 C 1.242188 0.09375 0.976562 -0.0820312 0.835938 -0.429688 C 0.757812 -0.621094 0.722656 -0.886719 0.722656 -1.222656 L 0.722656 -4.257812 L 0.175781 -4.257812 C 0.160156 -4.265625 0.144531 -4.277344 0.136719 -4.285156 C 0.128906 -4.296875 0.125 -4.308594 0.125 -4.328125 C 0.125 -4.359375 0.132812 -4.386719 0.148438 -4.40625 C 0.164062 -4.421875 0.210938 -4.464844 0.289062 -4.53125 C 0.519531 -4.722656 0.6875 -4.878906 0.789062 -4.996094 C 0.890625 -5.113281 1.128906 -5.425781 1.507812 -5.933594 C 1.550781 -5.933594 1.578125 -5.929688 1.585938 -5.925781 C 1.59375 -5.917969 1.597656 -5.894531 1.597656 -5.847656 L 1.597656 -4.617188 Z "/>
</g>
<g id="glyph-0-9">
<path d="M 2.347656 -4.699219 C 2.820312 -4.699219 3.230469 -4.535156 3.585938 -4.210938 C 3.941406 -3.882812 4.117188 -3.421875 4.117188 -2.824219 L 0.9375 -2.824219 C 0.96875 -2.050781 1.144531 -1.484375 1.460938 -1.132812 C 1.777344 -0.777344 2.15625 -0.601562 2.589844 -0.601562 C 2.941406 -0.601562 3.234375 -0.691406 3.476562 -0.875 C 3.714844 -1.058594 3.9375 -1.320312 4.140625 -1.65625 L 4.316406 -1.597656 C 4.179688 -1.171875 3.925781 -0.78125 3.546875 -0.421875 C 3.171875 -0.0585938 2.710938 0.121094 2.167969 0.121094 C 1.539062 0.121094 1.054688 -0.117188 0.714844 -0.589844 C 0.371094 -1.066406 0.199219 -1.609375 0.199219 -2.230469 C 0.199219 -2.898438 0.398438 -3.480469 0.796875 -3.964844 C 1.195312 -4.453125 1.710938 -4.699219 2.347656 -4.699219 Z M 2.058594 -4.332031 C 1.679688 -4.332031 1.386719 -4.164062 1.1875 -3.828125 C 1.082031 -3.648438 1.003906 -3.417969 0.957031 -3.144531 L 3.070312 -3.144531 C 3.035156 -3.480469 2.96875 -3.726562 2.878906 -3.890625 C 2.714844 -4.183594 2.441406 -4.332031 2.058594 -4.332031 Z "/>
</g>
<g id="glyph-0-10">
<path d="M 0.199219 -0.140625 C 0.554688 -0.15625 0.789062 -0.222656 0.898438 -0.339844 C 1.011719 -0.453125 1.066406 -0.695312 1.066406 -1.066406 L 1.066406 -4.28125 L 0.210938 -4.28125 L 0.210938 -4.617188 L 1.066406 -4.617188 C 1.066406 -5.144531 1.136719 -5.589844 1.28125 -5.953125 C 1.554688 -6.652344 2.058594 -7 2.789062 -7 C 3.082031 -7 3.347656 -6.941406 3.578125 -6.828125 C 3.808594 -6.710938 3.925781 -6.550781 3.925781 -6.355469 C 3.925781 -6.246094 3.886719 -6.148438 3.804688 -6.058594 C 3.726562 -5.972656 3.628906 -5.929688 3.515625 -5.929688 C 3.417969 -5.929688 3.335938 -5.957031 3.265625 -6.015625 C 3.195312 -6.074219 3.113281 -6.179688 3.015625 -6.324219 L 2.929688 -6.457031 C 2.882812 -6.527344 2.828125 -6.585938 2.765625 -6.632812 C 2.703125 -6.679688 2.613281 -6.707031 2.5 -6.707031 C 2.246094 -6.707031 2.074219 -6.582031 1.984375 -6.332031 C 1.933594 -6.199219 1.90625 -6.023438 1.90625 -5.804688 L 1.90625 -4.617188 L 3.164062 -4.617188 L 3.164062 -4.28125 L 1.917969 -4.28125 L 1.917969 -1.066406 C 1.917969 -0.6875 1.96875 -0.449219 2.070312 -0.34375 C 2.171875 -0.238281 2.4375 -0.171875 2.871094 -0.140625 L 2.871094 0 L 0.199219 0 Z "/>
</g>
<g id="glyph-0-11">
<path d="M 0.164062 -0.128906 C 0.425781 -0.152344 0.597656 -0.195312 0.6875 -0.261719 C 0.820312 -0.359375 0.886719 -0.550781 0.886719 -0.839844 L 0.886719 -3.429688 C 0.886719 -3.675781 0.855469 -3.839844 0.789062 -3.917969 C 0.722656 -3.992188 0.617188 -4.03125 0.464844 -4.03125 C 0.394531 -4.03125 0.34375 -4.027344 0.308594 -4.023438 C 0.273438 -4.015625 0.230469 -4.003906 0.183594 -3.988281 L 0.183594 -4.160156 L 0.546875 -4.28125 C 0.675781 -4.324219 0.890625 -4.402344 1.1875 -4.515625 C 1.484375 -4.628906 1.640625 -4.6875 1.65625 -4.6875 C 1.675781 -4.6875 1.683594 -4.679688 1.6875 -4.664062 C 1.691406 -4.644531 1.691406 -4.613281 1.691406 -4.566406 L 1.691406 -3.890625 C 2.023438 -4.191406 2.308594 -4.398438 2.550781 -4.515625 C 2.789062 -4.628906 3.035156 -4.6875 3.289062 -4.6875 C 3.632812 -4.6875 3.90625 -4.570312 4.113281 -4.335938 C 4.21875 -4.210938 4.308594 -4.039062 4.378906 -3.820312 C 4.625 -4.070312 4.839844 -4.257812 5.023438 -4.378906 C 5.339844 -4.585938 5.664062 -4.6875 5.996094 -4.6875 C 6.53125 -4.6875 6.890625 -4.46875 7.070312 -4.03125 C 7.175781 -3.785156 7.226562 -3.394531 7.226562 -2.859375 L 7.226562 -0.78125 C 7.226562 -0.542969 7.28125 -0.382812 7.382812 -0.296875 C 7.488281 -0.210938 7.679688 -0.15625 7.953125 -0.128906 L 7.953125 0 L 5.695312 0 L 5.695312 -0.140625 C 5.984375 -0.167969 6.175781 -0.226562 6.269531 -0.316406 C 6.359375 -0.40625 6.40625 -0.589844 6.40625 -0.867188 L 6.40625 -3.023438 C 6.40625 -3.347656 6.371094 -3.585938 6.300781 -3.742188 C 6.175781 -4.015625 5.933594 -4.152344 5.574219 -4.152344 C 5.355469 -4.152344 5.140625 -4.078125 4.929688 -3.9375 C 4.804688 -3.851562 4.652344 -3.71875 4.472656 -3.535156 L 4.472656 -0.972656 C 4.472656 -0.703125 4.519531 -0.496094 4.613281 -0.355469 C 4.710938 -0.214844 4.910156 -0.140625 5.21875 -0.128906 L 5.21875 0 L 2.917969 0 L 2.917969 -0.128906 C 3.238281 -0.167969 3.4375 -0.246094 3.527344 -0.359375 C 3.613281 -0.472656 3.65625 -0.753906 3.65625 -1.195312 L 3.65625 -2.597656 C 3.65625 -3.113281 3.621094 -3.46875 3.554688 -3.660156 C 3.445312 -3.988281 3.210938 -4.152344 2.855469 -4.152344 C 2.652344 -4.152344 2.449219 -4.097656 2.253906 -3.984375 C 2.058594 -3.871094 1.882812 -3.726562 1.734375 -3.546875 L 1.734375 -0.804688 C 1.734375 -0.550781 1.777344 -0.378906 1.867188 -0.28125 C 1.953125 -0.183594 2.148438 -0.132812 2.445312 -0.128906 L 2.445312 0 L 0.164062 0 Z "/>
</g>
<g id="glyph-0-12">
<path d="M 0.046875 -0.164062 C 0.351562 -0.191406 0.554688 -0.246094 0.65625 -0.328125 C 0.757812 -0.410156 0.804688 -0.585938 0.804688 -0.851562 L 0.804688 -3.109375 C 0.804688 -3.441406 0.777344 -3.675781 0.714844 -3.820312 C 0.652344 -3.960938 0.539062 -4.03125 0.375 -4.03125 C 0.34375 -4.03125 0.296875 -4.027344 0.242188 -4.019531 C 0.1875 -4.011719 0.128906 -4 0.0703125 -3.988281 L 0.0703125 -4.152344 C 0.261719 -4.21875 0.457031 -4.285156 0.65625 -4.355469 C 0.855469 -4.425781 0.996094 -4.476562 1.070312 -4.507812 C 1.238281 -4.570312 1.410156 -4.644531 1.585938 -4.722656 C 1.609375 -4.722656 1.625 -4.714844 1.628906 -4.699219 C 1.632812 -4.679688 1.636719 -4.644531 1.636719 -4.59375 L 1.636719 -3.769531 C 1.851562 -4.066406 2.058594 -4.300781 2.257812 -4.46875 C 2.457031 -4.632812 2.660156 -4.71875 2.875 -4.71875 C 3.046875 -4.71875 3.183594 -4.667969 3.289062 -4.566406 C 3.398438 -4.464844 3.449219 -4.335938 3.449219 -4.183594 C 3.449219 -4.046875 3.410156 -3.929688 3.328125 -3.835938 C 3.246094 -3.742188 3.144531 -3.695312 3.019531 -3.695312 C 2.894531 -3.695312 2.765625 -3.753906 2.636719 -3.871094 C 2.507812 -3.988281 2.40625 -4.046875 2.332031 -4.046875 C 2.214844 -4.046875 2.074219 -3.953125 1.902344 -3.765625 C 1.734375 -3.574219 1.648438 -3.378906 1.648438 -3.179688 L 1.648438 -0.921875 C 1.648438 -0.632812 1.714844 -0.433594 1.847656 -0.324219 C 1.980469 -0.210938 2.203125 -0.160156 2.515625 -0.164062 L 2.515625 0 L 0.046875 0 Z "/>
</g>
<g id="glyph-0-13">
<path d="M 1.671875 0.121094 C 1.511719 0.121094 1.378906 0.0625 1.265625 -0.046875 C 1.15625 -0.160156 1.101562 -0.292969 1.101562 -0.449219 C 1.101562 -0.605469 1.15625 -0.742188 1.269531 -0.851562 C 1.382812 -0.960938 1.515625 -1.015625 1.671875 -1.015625 C 1.828125 -1.015625 1.964844 -0.960938 2.074219 -0.851562 C 2.183594 -0.742188 2.238281 -0.609375 2.238281 -0.449219 C 2.238281 -0.292969 2.183594 -0.160156 2.074219 -0.046875 C 1.96875 0.0664062 1.832031 0.121094 1.671875 0.121094 Z "/>
</g>
</g>
<image id="source-9" x="0" y="0" width="0" height="0"/>
<mask id="mask-0">
<use xlink:href="#source-9"/>
</mask>
</defs>
<g fill="rgb(100%, 100%, 100%)" fill-opacity="1">
<use xlink:href="#glyph-0-0" x="30" y="27.692383"/>
<use xlink:href="#glyph-0-1" x="36" y="27.692383"/>
<use xlink:href="#glyph-0-1" x="41" y="27.692383"/>
<use xlink:href="#glyph-0-2" x="46" y="27.692383"/>
<use xlink:href="#glyph-0-3" x="51" y="27.692383"/>
<use xlink:href="#glyph-0-4" x="55" y="27.692383"/>
<use xlink:href="#glyph-0-5" x="58" y="27.692383"/>
<use xlink:href="#glyph-0-4" x="63" y="27.692383"/>
<use xlink:href="#glyph-0-6" x="66" y="27.692383"/>
<use xlink:href="#glyph-0-7" x="69" y="27.692383"/>
<use xlink:href="#glyph-0-8" x="72" y="27.692383"/>
<use xlink:href="#glyph-0-8" x="75" y="27.692383"/>
<use xlink:href="#glyph-0-6" x="78" y="27.692383"/>
<use xlink:href="#glyph-0-9" x="81" y="27.692383"/>
<use xlink:href="#glyph-0-4" x="86" y="27.692383"/>
<use xlink:href="#glyph-0-10" x="89" y="27.692383"/>
<use xlink:href="#glyph-0-5" x="92" y="27.692383"/>
<use xlink:href="#glyph-0-11" x="97" y="27.692383"/>
<use xlink:href="#glyph-0-7" x="105" y="27.692383"/>
<use xlink:href="#glyph-0-6" x="108" y="27.692383"/>
<use xlink:href="#glyph-0-7" x="111" y="27.692383"/>
<use xlink:href="#glyph-0-5" x="114" y="27.692383"/>
<use xlink:href="#glyph-0-12" x="119" y="27.692383"/>
<use xlink:href="#glyph-0-13" x="122" y="27.692383"/>
<use xlink:href="#glyph-0-13" x="124" y="27.692383"/>
</g>
</svg>
