<?xml version="1.0" encoding="UTF-8"?>
<svg xmlns="http://www.w3.org/2000/svg" xmlns:xlink="http://www.w3.org/1999/xlink" width="3840" height="2160" viewBox="0 0 3840 2160">
<defs>
<g>
<g id="glyph-0-0">
<path d="M 1.59375 -0.121094 C 1.914062 -0.121094 2.132812 -0.296875 2.253906 -0.644531 C 2.371094 -0.992188 2.433594 -1.5 2.433594 -2.160156 C 2.433594 -2.6875 2.394531 -3.109375 2.324219 -3.425781 C 2.191406 -4.011719 1.9375 -4.304688 1.570312 -4.304688 C 1.199219 -4.304688 0.949219 -4 0.8125 -3.398438 C 0.738281 -3.078125 0.703125 -2.652344 0.703125 -2.128906 C 0.703125 -1.636719 0.738281 -1.242188 0.8125 -0.949219 C 0.953125 -0.398438 1.214844 -0.121094 1.59375 -0.121094 Z M 1.585938 -4.480469 C 2.085938 -4.480469 2.472656 -4.21875 2.746094 -3.695312 C 2.964844 -3.273438 3.078125 -2.785156 3.078125 -2.238281 C 3.078125 -1.804688 3.007812 -1.398438 2.875 -1.015625 C 2.621094 -0.296875 2.179688 0.0625 1.554688 0.0625 C 1.128906 0.0625 0.777344 -0.132812 0.5 -0.519531 C 0.207031 -0.933594 0.0585938 -1.5 0.0585938 -2.210938 C 0.0585938 -2.769531 0.15625 -3.253906 0.355469 -3.65625 C 0.621094 -4.203125 1.03125 -4.480469 1.585938 -4.480469 Z "/>
</g>
<g id="glyph-0-1">
<path d="M 1.972656 -4.472656 C 1.980469 -4.460938 1.984375 -4.453125 1.988281 -4.449219 C 1.988281 -4.441406 1.988281 -4.429688 1.988281 -4.410156 L 1.988281 -0.492188 C 1.988281 -0.324219 2.035156 -0.21875 2.121094 -0.171875 C 2.210938 -0.125 2.378906 -0.101562 2.621094 -0.0898438 L 2.621094 0 L 0.785156 0 L 0.785156 -0.0976562 C 1.046875 -0.109375 1.21875 -0.148438 1.300781 -0.207031 C 1.378906 -0.265625 1.417969 -0.390625 1.417969 -0.585938 L 1.417969 -3.601562 C 1.417969 -3.703125 1.40625 -3.785156 1.378906 -3.839844 C 1.355469 -3.894531 1.296875 -3.917969 1.210938 -3.917969 C 1.15625 -3.917969 1.082031 -3.902344 0.992188 -3.871094 C 0.902344 -3.839844 0.816406 -3.808594 0.738281 -3.773438 L 0.738281 -3.863281 L 1.933594 -4.472656 Z "/>
</g>
<g id="glyph-0-2">
<rect x="0" y="0" width="0" height="0" mask="url(#mask-0)"/>
</g>
</g>
<image id="source-7" x="0" y="0" width="0" height="0"/>
<mask id="mask-0">
<use xlink:href="#source-7"/>
</mask>
</defs>
<g fill="rgb(100%, 100%, 100%)" fill-opacity="1">
<use xlink:href="#glyph-0-0" x="30" y="25"/>
<use xlink:href="#glyph-0-1" x="33" y="25"/>
<use xlink:href="#glyph-0-1" x="36" y="25"/>
<use xlink:href="#glyph-0-0" x="39" y="25"/>
<use xlink:href="#glyph-0-1" x="42" y="25"/>
<use xlink:href="#glyph-0-0" x="45" y="25"/>
<use xlink:href="#glyph-0-0" x="48" y="25"/>
<use xlink:href="#glyph-0-0" x="51" y="25"/>
<use xlink:href="#glyph-0-2" x="54" y="25"/>
<use xlink:href="#glyph-0-0" x="56" y="25"/>
<use xlink:href="#glyph-0-1" x="59" y="25"/>
<use xlink:href="#glyph-0-1" x="62" y="25"/>
<use xlink:href="#glyph-0-0" x="65" y="25"/>
<use xlink:href="#glyph-0-0" x="68" y="25"/>
<use xlink:href="#glyph-0-1" x="71" y="25"/>
<use xlink:href="#glyph-0-0" x="74" y="25"/>
<use xlink:href="#glyph-0-1" x="77" y="25"/>
<use xlink:href="#glyph-0-2" x="80" y="25"/>
<use xlink:href="#glyph-0-0" x="82" y="25"/>
<use xlink:href="#glyph-0-1" x="85" y="25"/>
<use xlink:href="#glyph-0-1" x="88" y="25"/>
<use xlink:href="#glyph-0-0" x="91" y="25"/>
<use xlink:href="#glyph-0-1" x="94" y="25"/>
<use xlink:href="#glyph-0-1" x="97" y="25"/>
<use xlink:href="#glyph-0-0" x="100" y="25"/>
<use xlink:href="#glyph-0-0" x="103" y="25"/>
<use xlink:href="#glyph-0-2" x="106" y="25"/>
<use xlink:href="#glyph-0-0" x="108" y="25"/>
<use xlink:href="#glyph-0-1" x="111" y="25"/>
<use xlink:href="#glyph-0-1" x="114" y="25"/>
<use xlink:href="#glyph-0-0" x="117" y="25"/>
<use xlink:href="#glyph-0-1" x="120" y="25"/>
<use xlink:href="#glyph-0-1" x="123" y="25"/>
<use xlink:href="#glyph-0-0" x="126" y="25"/>
<use xlink:href="#glyph-0-0" x="129" y="25"/>
<use xlink:href="#glyph-0-2" x="132" y="25"/>
</g>
<g fill="rgb(100%, 100%, 100%)" fill-opacity="1">
<use xlink:href="#glyph-0-2" x="30" y="31.5"/>
<use xlink:href="#glyph-0-0" x="32" y="31.5"/>
<use xlink:href="#glyph-0-1" x="35" y="31.5"/>
<use xlink:href="#glyph-0-1" x="38" y="31.5"/>
<use xlink:href="#glyph-0-0" x="41" y="31.5"/>
<use xlink:href="#glyph-0-1" x="44" y="31.5"/>
<use xlink:href="#glyph-0-1" x="47" y="31.5"/>
<use xlink:href="#glyph-0-1" x="50" y="31.5"/>
<use xlink:href="#glyph-0-1" x="53" y="31.5"/>
<use xlink:href="#glyph-0-2" x="56" y="31.5"/>
<use xlink:href="#glyph-0-0" x="58" y="31.5"/>
<use xlink:href="#glyph-0-0" x="61" y="31.5"/>
<use xlink:href="#glyph-0-1" x="64" y="31.5"/>
<use xlink:href="#glyph-0-0" x="67" y="31.5"/>
<use xlink:href="#glyph-0-0" x="70" y="31.5"/>
<use xlink:href="#glyph-0-0" x="73" y="31.5"/>
<use xlink:href="#glyph-0-0" x="76" y="31.5"/>
<use xlink:href="#glyph-0-0" x="79" y="31.5"/>
<use xlink:href="#glyph-0-2" x="82" y="31.5"/>
<use xlink:href="#glyph-0-0" x="84" y="31.5"/>
<use xlink:href="#glyph-0-1" x="87" y="31.5"/>
<use xlink:href="#glyph-0-1" x="90" y="31.5"/>
<use xlink:href="#glyph-0-1" x="93" y="31.5"/>
<use xlink:href="#glyph-0-0" x="96" y="31.5"/>
<use xlink:href="#glyph-0-1" x="99" y="31.5"/>
<use xlink:href="#glyph-0-1" x="102" y="31.5"/>
<use xlink:href="#glyph-0-1" x="105" y="31.5"/>
<use xlink:href="#glyph-0-2" x="108" y="31.5"/>
<use xlink:href="#glyph-0-0" x="110" y="31.5"/>
<use xlink:href="#glyph-0-1" x="113" y="31.5"/>
<use xlink:href="#glyph-0-1" x="116" y="31.5"/>
<use xlink:href="#glyph-0-1" x="119" y="31.5"/>
<use xlink:href="#glyph-0-0" x="122" y="31.5"/>
<use xlink:href="#glyph-0-1" x="125" y="31.5"/>
<use xlink:href="#glyph-0-1" x="128" y="31.5"/>
<use xlink:href="#glyph-0-1" x="131" y="31.5"/>
<use xlink:href="#glyph-0-2" x="134" y="31.5"/>
<use xlink:href="#glyph-0-2" x="136" y="31.5"/>
</g>
<g fill="rgb(100%, 100%, 100%)" fill-opacity="1">
<use xlink:href="#glyph-0-0" x="30" y="38"/>
<use xlink:href="#glyph-0-1" x="33" y="38"/>
<use xlink:href="#glyph-0-1" x="36" y="38"/>
<use xlink:href="#glyph-0-1" x="39" y="38"/>
<use xlink:href="#glyph-0-0" x="42" y="38"/>
<use xlink:href="#glyph-0-0" x="45" y="38"/>
<use xlink:href="#glyph-0-1" x="48" y="38"/>
<use xlink:href="#glyph-0-0" x="51" y="38"/>
<use xlink:href="#glyph-0-2" x="54" y="38"/>
<use xlink:href="#glyph-0-0" x="56" y="38"/>
<use xlink:href="#glyph-0-1" x="59" y="38"/>
<use xlink:href="#glyph-0-1" x="62" y="38"/>
<use xlink:href="#glyph-0-0" x="65" y="38"/>
<use xlink:href="#glyph-0-1" x="68" y="38"/>
<use xlink:href="#glyph-0-1" x="71" y="38"/>
<use xlink:href="#glyph-0-0" x="74" y="38"/>
<use xlink:href="#glyph-0-0" x="77" y="38"/>
<use xlink:href="#glyph-0-2" x="80" y="38"/>
<use xlink:href="#glyph-0-0" x="82" y="38"/>
<use xlink:href="#glyph-0-1" x="85" y="38"/>
<use xlink:href="#glyph-0-1" x="88" y="38"/>
<use xlink:href="#glyph-0-0" x="91" y="38"/>
<use xlink:href="#glyph-0-0" x="94" y="38"/>
<use xlink:href="#glyph-0-1" x="97" y="38"/>
<use xlink:href="#glyph-0-0" x="100" y="38"/>
<use xlink:href="#glyph-0-0" x="103" y="38"/>
<use xlink:href="#glyph-0-2" x="106" y="38"/>
<use xlink:href="#glyph-0-0" x="108" y="38"/>
<use xlink:href="#glyph-0-0" x="111" y="38"/>
<use xlink:href="#glyph-0-1" x="114" y="38"/>
<use xlink:href="#glyph-0-0" x="117" y="38"/>
<use xlink:href="#glyph-0-0" x="120" y="38"/>
<use xlink:href="#glyph-0-0" x="123" y="38"/>
<use xlink:href="#glyph-0-0" x="126" y="38"/>
<use xlink:href="#glyph-0-1" x="129" y="38"/>
</g>
</svg>
