<?xml version="1.0" encoding="UTF-8"?>
<svg xmlns="http://www.w3.org/2000/svg" xmlns:xlink="http://www.w3.org/1999/xlink" width="3840" height="2160" viewBox="0 0 3840 2160">
<defs>
<g>
<g id="glyph-0-0">
<rect x="0" y="0" width="0" height="0" mask="url(#mask-0)"/>
</g>
<g id="glyph-0-1">
<path d="M 0.507812 -0.191406 L 0.507812 0.578125 L 0.257812 0.578125 L 0.257812 -1.519531 L 0.507812 -1.519531 L 0.507812 -1.324219 C 0.550781 -1.398438 0.605469 -1.457031 0.675781 -1.496094 C 0.746094 -1.535156 0.824219 -1.554688 0.914062 -1.554688 C 1.097656 -1.554688 1.242188 -1.484375 1.347656 -1.34375 C 1.449219 -1.199219 1.503906 -1.003906 1.503906 -0.753906 C 1.503906 -0.507812 1.449219 -0.3125 1.34375 -0.171875 C 1.238281 -0.03125 1.097656 0.0390625 0.914062 0.0390625 C 0.820312 0.0390625 0.742188 0.0195312 0.671875 -0.0195312 C 0.601562 -0.0585938 0.546875 -0.117188 0.507812 -0.191406 Z M 1.242188 -0.757812 C 1.242188 -0.953125 1.210938 -1.097656 1.148438 -1.195312 C 1.089844 -1.292969 0.996094 -1.34375 0.878906 -1.34375 C 0.757812 -1.34375 0.664062 -1.292969 0.601562 -1.195312 C 0.539062 -1.097656 0.507812 -0.949219 0.507812 -0.757812 C 0.507812 -0.566406 0.539062 -0.421875 0.601562 -0.320312 C 0.664062 -0.222656 0.757812 -0.171875 0.878906 -0.171875 C 1 -0.171875 1.089844 -0.222656 1.148438 -0.320312 C 1.210938 -0.417969 1.242188 -0.566406 1.242188 -0.757812 Z "/>
</g>
<g id="glyph-0-2">
<path d="M 1.566406 -1.207031 C 1.511719 -1.246094 1.457031 -1.277344 1.402344 -1.296875 C 1.347656 -1.316406 1.289062 -1.324219 1.222656 -1.324219 C 1.066406 -1.324219 0.949219 -1.277344 0.863281 -1.179688 C 0.78125 -1.082031 0.742188 -0.941406 0.742188 -0.753906 L 0.742188 0 L 0.492188 0 L 0.492188 -1.519531 L 0.742188 -1.519531 L 0.742188 -1.222656 C 0.785156 -1.328125 0.847656 -1.410156 0.933594 -1.46875 C 1.019531 -1.527344 1.121094 -1.554688 1.242188 -1.554688 C 1.304688 -1.554688 1.359375 -1.546875 1.414062 -1.53125 C 1.464844 -1.515625 1.515625 -1.492188 1.566406 -1.460938 Z "/>
</g>
<g id="glyph-0-3">
<path d="M 0.429688 -1.511719 L 1.066406 -1.511719 L 1.066406 -0.195312 L 1.5625 -0.195312 L 1.5625 0 L 0.324219 0 L 0.324219 -0.195312 L 0.816406 -0.195312 L 0.816406 -1.320312 L 0.429688 -1.320312 Z M 0.816406 -2.101562 L 1.066406 -2.101562 L 1.066406 -1.789062 L 0.816406 -1.789062 Z "/>
</g>
<g id="glyph-0-4">
<path d="M 1.425781 -0.941406 L 1.425781 0 L 1.175781 0 L 1.175781 -0.941406 C 1.175781 -1.078125 1.152344 -1.179688 1.101562 -1.242188 C 1.054688 -1.304688 0.980469 -1.339844 0.878906 -1.339844 C 0.761719 -1.339844 0.671875 -1.296875 0.609375 -1.214844 C 0.546875 -1.132812 0.515625 -1.011719 0.515625 -0.859375 L 0.515625 0 L 0.265625 0 L 0.265625 -1.519531 L 0.515625 -1.519531 L 0.515625 -1.292969 C 0.558594 -1.378906 0.617188 -1.445312 0.695312 -1.488281 C 0.769531 -1.53125 0.859375 -1.554688 0.964844 -1.554688 C 1.117188 -1.554688 1.234375 -1.503906 1.3125 -1.402344 C 1.386719 -1.300781 1.425781 -1.148438 1.425781 -0.941406 Z "/>
</g>
<g id="glyph-0-5">
<path d="M 0.832031 -1.949219 L 0.832031 -1.519531 L 1.398438 -1.519531 L 1.398438 -1.324219 L 0.832031 -1.324219 L 0.832031 -0.5 C 0.832031 -0.386719 0.855469 -0.308594 0.894531 -0.265625 C 0.9375 -0.222656 1.011719 -0.199219 1.117188 -0.199219 L 1.398438 -0.199219 L 1.398438 0 L 1.09375 0 C 0.90625 0 0.773438 -0.0390625 0.699219 -0.113281 C 0.621094 -0.1875 0.582031 -0.316406 0.582031 -0.5 L 0.582031 -1.324219 L 0.175781 -1.324219 L 0.175781 -1.519531 L 0.582031 -1.519531 L 0.582031 -1.949219 Z "/>
</g>
<g id="glyph-0-6">
<path d="M 1.160156 -2.242188 C 1.039062 -2.035156 0.949219 -1.832031 0.890625 -1.625 C 0.832031 -1.421875 0.800781 -1.214844 0.800781 -1.007812 C 0.800781 -0.800781 0.832031 -0.59375 0.890625 -0.390625 C 0.949219 -0.183594 1.039062 0.0234375 1.160156 0.230469 L 0.941406 0.230469 C 0.804688 0.015625 0.703125 -0.195312 0.636719 -0.398438 C 0.570312 -0.601562 0.535156 -0.804688 0.535156 -1.007812 C 0.535156 -1.210938 0.570312 -1.414062 0.636719 -1.617188 C 0.703125 -1.820312 0.804688 -2.03125 0.941406 -2.242188 Z "/>
</g>
<g id="glyph-0-7">
<path d="M 1.007812 -2.113281 L 1.007812 -1.269531 L 0.703125 -1.269531 L 0.703125 -2.113281 Z "/>
</g>
<g id="glyph-0-8">
<path d="M 0.1875 -2.023438 L 0.460938 -2.023438 L 0.460938 -1.25 L 1.210938 -1.25 L 1.210938 -2.023438 L 1.484375 -2.023438 L 1.484375 0 L 1.210938 0 L 1.210938 -1.019531 L 0.460938 -1.019531 L 0.460938 0 L 0.1875 0 Z "/>
</g>
<g id="glyph-0-9">
<path d="M 1.519531 -0.882812 L 1.519531 -0.761719 L 0.4375 -0.761719 L 0.4375 -0.753906 C 0.429688 -0.546875 0.46875 -0.398438 0.558594 -0.308594 C 0.644531 -0.21875 0.765625 -0.171875 0.921875 -0.171875 C 1 -0.171875 1.085938 -0.183594 1.171875 -0.210938 C 1.257812 -0.234375 1.351562 -0.273438 1.449219 -0.324219 L 1.449219 -0.078125 C 1.355469 -0.0390625 1.261719 -0.0078125 1.175781 0.0117188 C 1.085938 0.03125 1 0.0390625 0.917969 0.0390625 C 0.683594 0.0390625 0.5 -0.03125 0.367188 -0.171875 C 0.234375 -0.3125 0.167969 -0.507812 0.167969 -0.757812 C 0.167969 -1 0.230469 -1.195312 0.363281 -1.339844 C 0.492188 -1.484375 0.664062 -1.554688 0.882812 -1.554688 C 1.078125 -1.554688 1.230469 -1.488281 1.339844 -1.359375 C 1.453125 -1.226562 1.511719 -1.070312 1.519531 -0.882812 Z M 1.269531 -0.957031 C 1.257812 -1.0625 1.21875 -1.152344 1.15625 -1.230469 C 1.089844 -1.304688 0.996094 -1.34375 0.871094 -1.34375 C 0.75 -1.34375 0.652344 -1.304688 0.574219 -1.222656 C 0.496094 -1.144531 0.453125 -1.054688 0.449219 -0.957031 Z "/>
</g>
<g id="glyph-0-10">
<path d="M 0.976562 -0.550781 C 0.976562 -0.4375 0.996094 -0.351562 1.035156 -0.296875 C 1.078125 -0.238281 1.140625 -0.210938 1.21875 -0.210938 L 1.511719 -0.210938 L 1.511719 0 L 1.195312 0 C 1.046875 0 0.929688 -0.046875 0.847656 -0.144531 C 0.765625 -0.238281 0.726562 -0.375 0.726562 -0.550781 L 0.726562 -1.921875 L 0.324219 -1.921875 L 0.324219 -2.117188 L 0.976562 -2.117188 Z "/>
</g>
<g id="glyph-0-11">
<path d="M 0.835938 -1.34375 C 0.710938 -1.34375 0.613281 -1.292969 0.546875 -1.195312 C 0.484375 -1.097656 0.449219 -0.953125 0.449219 -0.757812 C 0.449219 -0.566406 0.484375 -0.417969 0.546875 -0.320312 C 0.613281 -0.222656 0.707031 -0.171875 0.835938 -0.171875 C 0.964844 -0.171875 1.058594 -0.222656 1.125 -0.320312 C 1.191406 -0.417969 1.222656 -0.566406 1.222656 -0.757812 C 1.222656 -0.953125 1.1875 -1.097656 1.125 -1.195312 C 1.058594 -1.292969 0.960938 -1.34375 0.835938 -1.34375 Z M 0.835938 -1.554688 C 1.046875 -1.554688 1.207031 -1.488281 1.320312 -1.351562 C 1.429688 -1.214844 1.484375 -1.015625 1.484375 -0.757812 C 1.484375 -0.5 1.429688 -0.300781 1.320312 -0.164062 C 1.207031 -0.0273438 1.046875 0.0390625 0.835938 0.0390625 C 0.625 0.0390625 0.464844 -0.0273438 0.351562 -0.164062 C 0.242188 -0.300781 0.1875 -0.5 0.1875 -0.757812 C 0.1875 -1.015625 0.242188 -1.214844 0.351562 -1.351562 C 0.464844 -1.488281 0.625 -1.554688 0.835938 -1.554688 Z "/>
</g>
<g id="glyph-0-12">
<path d="M 0 -2.023438 L 0.265625 -2.023438 L 0.460938 -0.382812 L 0.691406 -1.46875 L 0.976562 -1.46875 L 1.210938 -0.378906 L 1.40625 -2.023438 L 1.671875 -2.023438 L 1.371094 0 L 1.109375 0 L 0.835938 -1.203125 L 0.5625 0 L 0.300781 0 Z "/>
</g>
<g id="glyph-0-13">
<path d="M 1.164062 -1.324219 L 1.164062 -2.109375 L 1.414062 -2.109375 L 1.414062 0 L 1.164062 0 L 1.164062 -0.191406 C 1.121094 -0.117188 1.066406 -0.0585938 0.996094 -0.0195312 C 0.929688 0.0195312 0.847656 0.0390625 0.757812 0.0390625 C 0.574219 0.0390625 0.429688 -0.03125 0.324219 -0.175781 C 0.21875 -0.316406 0.167969 -0.511719 0.167969 -0.761719 C 0.167969 -1.007812 0.21875 -1.203125 0.324219 -1.34375 C 0.429688 -1.484375 0.574219 -1.554688 0.757812 -1.554688 C 0.847656 -1.554688 0.929688 -1.535156 1 -1.496094 C 1.070312 -1.457031 1.125 -1.398438 1.164062 -1.324219 Z M 0.429688 -0.757812 C 0.429688 -0.566406 0.460938 -0.417969 0.523438 -0.320312 C 0.585938 -0.222656 0.675781 -0.171875 0.792969 -0.171875 C 0.914062 -0.171875 1.007812 -0.222656 1.070312 -0.320312 C 1.132812 -0.421875 1.164062 -0.566406 1.164062 -0.757812 C 1.164062 -0.949219 1.132812 -1.097656 1.070312 -1.195312 C 1.007812 -1.292969 0.914062 -1.34375 0.792969 -1.34375 C 0.675781 -1.34375 0.582031 -1.292969 0.523438 -1.195312 C 0.460938 -1.097656 0.429688 -0.953125 0.429688 -0.757812 Z "/>
</g>
<g id="glyph-0-14">
<path d="M 0.472656 -2.242188 L 0.6875 -2.242188 C 0.824219 -2.03125 0.925781 -1.820312 0.992188 -1.617188 C 1.058594 -1.414062 1.09375 -1.210938 1.09375 -1.007812 C 1.09375 -0.804688 1.0625 -0.601562 0.992188 -0.394531 C 0.925781 -0.191406 0.824219 0.015625 0.6875 0.230469 L 0.472656 0.230469 C 0.59375 0.0195312 0.683594 -0.1875 0.742188 -0.390625 C 0.800781 -0.597656 0.828125 -0.800781 0.828125 -1.007812 C 0.828125 -1.214844 0.800781 -1.417969 0.742188 -1.625 C 0.683594 -1.828125 0.59375 -2.035156 0.472656 -2.242188 Z "/>
</g>
</g>
<image id="source-5" x="0" y="0" width="0" height="0"/>
<mask id="mask-0">
<use xlink:href="#source-5"/>
</mask>
</defs>
<g fill="rgb(100%, 100%, 100%)" fill-opacity="1">
<use xlink:href="#glyph-0-0" x="30" y="22.578125"/>
<use xlink:href="#glyph-0-1" x="32" y="22.578125"/>
<use xlink:href="#glyph-0-2" x="34" y="22.578125"/>
<use xlink:href="#glyph-0-3" x="36" y="22.578125"/>
<use xlink:href="#glyph-0-4" x="38" y="22.578125"/>
<use xlink:href="#glyph-0-5" x="40" y="22.578125"/>
<use xlink:href="#glyph-0-6" x="42" y="22.578125"/>
<use xlink:href="#glyph-0-7" x="44" y="22.578125"/>
<use xlink:href="#glyph-0-8" x="46" y="22.578125"/>
<use xlink:href="#glyph-0-9" x="48" y="22.578125"/>
<use xlink:href="#glyph-0-10" x="50" y="22.578125"/>
<use xlink:href="#glyph-0-10" x="52" y="22.578125"/>
<use xlink:href="#glyph-0-11" x="54" y="22.578125"/>
<use xlink:href="#glyph-0-0" x="56" y="22.578125"/>
<use xlink:href="#glyph-0-12" x="58" y="22.578125"/>
<use xlink:href="#glyph-0-11" x="60" y="22.578125"/>
<use xlink:href="#glyph-0-2" x="62" y="22.578125"/>
<use xlink:href="#glyph-0-10" x="64" y="22.578125"/>
<use xlink:href="#glyph-0-13" x="66" y="22.578125"/>
<use xlink:href="#glyph-0-7" x="68" y="22.578125"/>
<use xlink:href="#glyph-0-14" x="70" y="22.578125"/>
</g>
</svg>
