<?xml version="1.0" encoding="UTF-8"?>
<svg xmlns="http://www.w3.org/2000/svg" xmlns:xlink="http://www.w3.org/1999/xlink" width="1920" height="1080" viewBox="0 0 1920 1080">
<defs>
<g>
<g id="glyph-0-0">
<path d="M 1.152344 -9.011719 C 1.355469 -9.011719 1.488281 -8.953125 1.550781 -8.84375 C 1.613281 -8.734375 1.648438 -8.582031 1.648438 -8.390625 C 1.648438 -8.359375 1.644531 -8.332031 1.644531 -8.300781 C 1.640625 -8.269531 1.632812 -8.179688 1.613281 -8.035156 L 1.296875 -5.167969 L 1.0625 -5.167969 L 0.722656 -7.820312 C 0.710938 -7.929688 0.699219 -8.035156 0.6875 -8.136719 C 0.675781 -8.242188 0.671875 -8.347656 0.671875 -8.457031 C 0.671875 -8.589844 0.699219 -8.71875 0.757812 -8.835938 C 0.816406 -8.953125 0.949219 -9.011719 1.152344 -9.011719 Z "/>
</g>
<g id="glyph-0-1">
<path d="M 3.3125 -6.140625 C 3.855469 -6.140625 4.324219 -6 4.714844 -5.71875 C 5.109375 -5.4375 5.304688 -5.132812 5.304688 -4.796875 C 5.304688 -4.65625 5.257812 -4.519531 5.15625 -4.398438 C 5.054688 -4.273438 4.902344 -4.210938 4.695312 -4.210938 C 4.542969 -4.210938 4.410156 -4.265625 4.292969 -4.367188 C 4.179688 -4.472656 4.09375 -4.625 4.042969 -4.824219 L 3.964844 -5.136719 C 3.910156 -5.367188 3.8125 -5.53125 3.671875 -5.625 C 3.527344 -5.714844 3.339844 -5.761719 3.105469 -5.761719 C 2.609375 -5.761719 2.191406 -5.546875 1.851562 -5.113281 C 1.511719 -4.683594 1.339844 -4.109375 1.339844 -3.390625 C 1.339844 -2.734375 1.527344 -2.148438 1.902344 -1.628906 C 2.277344 -1.105469 2.785156 -0.847656 3.425781 -0.847656 C 3.875 -0.847656 4.277344 -0.992188 4.628906 -1.289062 C 4.828125 -1.457031 5.054688 -1.726562 5.304688 -2.097656 L 5.488281 -1.984375 C 5.242188 -1.464844 4.980469 -1.050781 4.707031 -0.75 C 4.183594 -0.167969 3.574219 0.125 2.882812 0.125 C 2.207031 0.125 1.609375 -0.144531 1.085938 -0.675781 C 0.566406 -1.210938 0.304688 -1.9375 0.304688 -2.851562 C 0.304688 -3.75 0.589844 -4.523438 1.160156 -5.167969 C 1.726562 -5.816406 2.445312 -6.140625 3.3125 -6.140625 Z "/>
</g>
</g>
</defs>
<g fill="rgb(61.176471%, 86.27451%, 92.156863%)" fill-opacity="1">
<use xlink:href="#glyph-0-0" x="30" y="30"/>
<use xlink:href="#glyph-0-1" x="32" y="30"/>
<use xlink:href="#glyph-0-0" x="38" y="30"/>
</g>
</svg>
