<?xml version="1.0" encoding="UTF-8"?>
<svg xmlns="http://www.w3.org/2000/svg" xmlns:xlink="http://www.w3.org/1999/xlink" width="1920" height="1080" viewBox="0 0 1920 1080">
<defs>
<g>
<g id="glyph-0-0">
<path d="M 0.859375 -2.683594 C 1.085938 -2.082031 1.351562 -1.605469 1.652344 -1.25 C 2.183594 -0.628906 2.839844 -0.320312 3.625 -0.320312 C 4.050781 -0.320312 4.417969 -0.453125 4.730469 -0.722656 C 5.039062 -0.992188 5.195312 -1.367188 5.195312 -1.847656 C 5.195312 -2.28125 5.039062 -2.660156 4.726562 -2.980469 C 4.523438 -3.183594 4.09375 -3.492188 3.4375 -3.898438 L 2.296875 -4.609375 C 1.953125 -4.828125 1.683594 -5.046875 1.476562 -5.265625 C 1.101562 -5.6875 0.910156 -6.152344 0.910156 -6.660156 C 0.910156 -7.332031 1.136719 -7.894531 1.582031 -8.339844 C 2.027344 -8.785156 2.621094 -9.011719 3.359375 -9.011719 C 3.664062 -9.011719 4.027344 -8.933594 4.457031 -8.785156 C 4.882812 -8.636719 5.128906 -8.5625 5.1875 -8.5625 C 5.351562 -8.5625 5.46875 -8.601562 5.53125 -8.679688 C 5.59375 -8.757812 5.640625 -8.867188 5.675781 -9.011719 L 5.949219 -9.011719 L 6.242188 -6.171875 L 5.925781 -6.171875 C 5.707031 -7.027344 5.359375 -7.625 4.878906 -7.960938 C 4.398438 -8.300781 3.925781 -8.46875 3.457031 -8.46875 C 3.09375 -8.46875 2.773438 -8.363281 2.503906 -8.148438 C 2.230469 -7.933594 2.097656 -7.632812 2.097656 -7.253906 C 2.097656 -6.910156 2.199219 -6.617188 2.410156 -6.375 C 2.617188 -6.125 2.941406 -5.867188 3.378906 -5.597656 L 4.550781 -4.875 C 5.285156 -4.425781 5.800781 -4.011719 6.101562 -3.632812 C 6.394531 -3.25 6.542969 -2.800781 6.542969 -2.277344 C 6.542969 -1.578125 6.277344 -0.996094 5.75 -0.527344 C 5.222656 -0.0585938 4.550781 0.175781 3.730469 0.175781 C 3.316406 0.175781 2.886719 0.0976562 2.4375 -0.0585938 C 1.988281 -0.214844 1.730469 -0.292969 1.667969 -0.292969 C 1.511719 -0.292969 1.40625 -0.246094 1.351562 -0.148438 C 1.296875 -0.0546875 1.261719 0.046875 1.242188 0.15625 L 0.949219 0.15625 L 0.554688 -2.683594 Z "/>
</g>
<g id="glyph-0-1">
<path d="M 0.183594 -5.984375 L 2.929688 -5.984375 L 2.929688 -5.78125 C 2.710938 -5.777344 2.550781 -5.757812 2.449219 -5.722656 C 2.25 -5.667969 2.148438 -5.554688 2.148438 -5.390625 C 2.148438 -5.328125 2.160156 -5.269531 2.179688 -5.203125 C 2.203125 -5.140625 2.242188 -5.046875 2.296875 -4.921875 L 3.820312 -1.542969 L 5.046875 -4.949219 C 5.058594 -4.984375 5.078125 -5.0625 5.105469 -5.183594 C 5.136719 -5.304688 5.148438 -5.386719 5.148438 -5.429688 C 5.148438 -5.542969 5.109375 -5.625 5.03125 -5.675781 C 4.953125 -5.730469 4.855469 -5.757812 4.734375 -5.769531 L 4.53125 -5.78125 L 4.53125 -5.984375 L 6.320312 -5.984375 L 6.320312 -5.78125 C 6.144531 -5.757812 6.011719 -5.699219 5.921875 -5.597656 C 5.832031 -5.5 5.753906 -5.359375 5.691406 -5.183594 L 3.640625 0.246094 C 3.285156 1.183594 2.941406 1.863281 2.617188 2.285156 C 2.292969 2.707031 1.878906 2.917969 1.378906 2.917969 C 1.136719 2.917969 0.910156 2.855469 0.695312 2.734375 C 0.484375 2.613281 0.378906 2.417969 0.378906 2.15625 C 0.378906 1.980469 0.441406 1.839844 0.570312 1.726562 C 0.699219 1.617188 0.859375 1.5625 1.054688 1.5625 C 1.167969 1.5625 1.335938 1.605469 1.558594 1.6875 C 1.78125 1.769531 1.941406 1.808594 2.039062 1.808594 C 2.28125 1.808594 2.535156 1.527344 2.804688 0.964844 C 3.074219 0.398438 3.210938 0.0234375 3.210938 -0.167969 C 3.210938 -0.207031 3.203125 -0.257812 3.191406 -0.3125 C 3.175781 -0.367188 3.160156 -0.417969 3.144531 -0.460938 L 1.0625 -4.96875 C 0.914062 -5.289062 0.785156 -5.5 0.671875 -5.601562 C 0.5625 -5.703125 0.398438 -5.769531 0.183594 -5.800781 Z "/>
</g>
<g id="glyph-0-2">
<path d="M 0.214844 -0.167969 C 0.554688 -0.199219 0.777344 -0.257812 0.890625 -0.339844 C 1.066406 -0.464844 1.152344 -0.714844 1.152344 -1.09375 L 1.152344 -4.460938 C 1.152344 -4.78125 1.109375 -4.992188 1.023438 -5.089844 C 0.941406 -5.191406 0.800781 -5.242188 0.605469 -5.242188 C 0.515625 -5.242188 0.445312 -5.238281 0.398438 -5.226562 C 0.355469 -5.21875 0.300781 -5.203125 0.242188 -5.183594 L 0.242188 -5.410156 L 0.710938 -5.566406 C 0.878906 -5.621094 1.15625 -5.726562 1.542969 -5.871094 C 1.929688 -6.019531 2.132812 -6.09375 2.15625 -6.09375 C 2.175781 -6.09375 2.191406 -6.082031 2.195312 -6.0625 C 2.199219 -6.039062 2.199219 -6 2.199219 -5.9375 L 2.199219 -5.058594 C 2.628906 -5.449219 3 -5.71875 3.3125 -5.867188 C 3.625 -6.019531 3.949219 -6.09375 4.277344 -6.09375 C 4.722656 -6.09375 5.082031 -5.941406 5.34375 -5.636719 C 5.484375 -5.472656 5.597656 -5.25 5.691406 -4.96875 C 6.011719 -5.292969 6.292969 -5.535156 6.53125 -5.691406 C 6.941406 -5.960938 7.363281 -6.09375 7.792969 -6.09375 C 8.492188 -6.09375 8.957031 -5.808594 9.191406 -5.242188 C 9.328125 -4.921875 9.394531 -4.410156 9.394531 -3.71875 L 9.394531 -1.015625 C 9.394531 -0.707031 9.460938 -0.496094 9.597656 -0.386719 C 9.734375 -0.277344 9.980469 -0.203125 10.339844 -0.167969 L 10.339844 0 L 7.402344 0 L 7.402344 -0.183594 C 7.78125 -0.21875 8.027344 -0.292969 8.148438 -0.410156 C 8.265625 -0.527344 8.328125 -0.765625 8.328125 -1.125 L 8.328125 -3.933594 C 8.328125 -4.355469 8.28125 -4.664062 8.191406 -4.863281 C 8.03125 -5.21875 7.714844 -5.398438 7.246094 -5.398438 C 6.964844 -5.398438 6.683594 -5.304688 6.40625 -5.117188 C 6.246094 -5.007812 6.046875 -4.835938 5.8125 -4.597656 L 5.8125 -1.261719 C 5.8125 -0.910156 5.875 -0.644531 6 -0.460938 C 6.125 -0.28125 6.382812 -0.183594 6.785156 -0.167969 L 6.785156 0 L 3.796875 0 L 3.796875 -0.167969 C 4.207031 -0.222656 4.46875 -0.320312 4.582031 -0.46875 C 4.695312 -0.617188 4.753906 -0.980469 4.753906 -1.554688 L 4.753906 -3.378906 C 4.753906 -4.046875 4.710938 -4.507812 4.621094 -4.757812 C 4.480469 -5.183594 4.175781 -5.398438 3.710938 -5.398438 C 3.445312 -5.398438 3.1875 -5.324219 2.929688 -5.179688 C 2.671875 -5.035156 2.449219 -4.84375 2.253906 -4.609375 L 2.253906 -1.046875 C 2.253906 -0.71875 2.308594 -0.492188 2.425781 -0.363281 C 2.539062 -0.238281 2.789062 -0.171875 3.175781 -0.167969 L 3.175781 0 L 0.214844 0 Z "/>
</g>
<g id="glyph-0-3">
<path d="M 0.046875 -8.28125 L 0.046875 -8.503906 C 0.539062 -8.617188 0.984375 -8.742188 1.378906 -8.878906 C 1.773438 -9.019531 1.988281 -9.089844 2.019531 -9.089844 C 2.027344 -9.0625 2.03125 -9.035156 2.03125 -9.011719 L 2.03125 -5.046875 C 2.144531 -5.253906 2.3125 -5.453125 2.539062 -5.636719 C 2.9375 -5.964844 3.398438 -6.125 3.917969 -6.125 C 4.558594 -6.125 5.101562 -5.855469 5.554688 -5.320312 C 6.003906 -4.78125 6.230469 -4.082031 6.230469 -3.222656 C 6.230469 -2.300781 5.9375 -1.515625 5.351562 -0.859375 C 4.765625 -0.203125 3.996094 0.125 3.039062 0.125 C 2.558594 0.125 2.085938 0.0273438 1.621094 -0.164062 C 1.15625 -0.355469 0.925781 -0.542969 0.925781 -0.734375 L 0.925781 -7.617188 C 0.925781 -7.867188 0.890625 -8.046875 0.820312 -8.152344 C 0.75 -8.261719 0.589844 -8.3125 0.339844 -8.3125 Z M 2.003906 -0.949219 C 2.042969 -0.722656 2.214844 -0.5625 2.511719 -0.464844 C 2.8125 -0.367188 3.074219 -0.320312 3.300781 -0.320312 C 3.910156 -0.320312 4.359375 -0.546875 4.652344 -1.003906 C 4.945312 -1.457031 5.089844 -2.007812 5.089844 -2.65625 C 5.089844 -3.304688 4.953125 -3.902344 4.679688 -4.449219 C 4.40625 -5 3.964844 -5.273438 3.351562 -5.273438 C 3.042969 -5.273438 2.742188 -5.179688 2.449219 -4.988281 C 2.152344 -4.800781 2.003906 -4.5625 2.003906 -4.269531 Z "/>
</g>
<g id="glyph-0-4">
<path d="M 0.339844 -3.019531 C 0.339844 -3.882812 0.613281 -4.613281 1.160156 -5.210938 C 1.710938 -5.808594 2.417969 -6.105469 3.28125 -6.105469 C 4.140625 -6.105469 4.851562 -5.824219 5.417969 -5.261719 C 5.980469 -4.695312 6.261719 -3.945312 6.261719 -3.007812 C 6.261719 -2.144531 5.988281 -1.394531 5.441406 -0.753906 C 4.894531 -0.117188 4.1875 0.203125 3.320312 0.203125 C 2.488281 0.203125 1.78125 -0.105469 1.203125 -0.714844 C 0.625 -1.328125 0.339844 -2.097656 0.339844 -3.019531 Z M 3.097656 -5.714844 C 2.753906 -5.714844 2.457031 -5.601562 2.207031 -5.378906 C 1.773438 -4.984375 1.554688 -4.300781 1.554688 -3.332031 C 1.554688 -2.558594 1.730469 -1.839844 2.078125 -1.171875 C 2.429688 -0.503906 2.914062 -0.167969 3.535156 -0.167969 C 4.019531 -0.167969 4.394531 -0.394531 4.65625 -0.839844 C 4.921875 -1.285156 5.050781 -1.871094 5.050781 -2.597656 C 5.050781 -3.347656 4.886719 -4.054688 4.550781 -4.71875 C 4.214844 -5.382812 3.734375 -5.714844 3.097656 -5.714844 Z "/>
</g>
<g id="glyph-0-5">
<path d="M 0.273438 -0.183594 C 0.675781 -0.222656 0.949219 -0.300781 1.09375 -0.425781 C 1.238281 -0.550781 1.308594 -0.792969 1.308594 -1.152344 L 1.308594 -7.511719 C 1.308594 -7.800781 1.285156 -7.996094 1.238281 -8.105469 C 1.152344 -8.289062 0.972656 -8.378906 0.710938 -8.378906 C 0.648438 -8.378906 0.582031 -8.371094 0.511719 -8.359375 C 0.441406 -8.347656 0.347656 -8.328125 0.242188 -8.300781 L 0.242188 -8.515625 C 0.828125 -8.671875 1.53125 -8.878906 2.355469 -9.140625 C 2.386719 -9.140625 2.40625 -9.128906 2.410156 -9.101562 C 2.417969 -9.074219 2.421875 -9.019531 2.421875 -8.933594 L 2.421875 -1.125 C 2.421875 -0.75 2.488281 -0.503906 2.617188 -0.394531 C 2.746094 -0.285156 3.015625 -0.210938 3.425781 -0.183594 L 3.425781 0 L 0.273438 0 Z "/>
</g>
</g>
</defs>
<g fill="rgb(100%, 100%, 100%)" fill-opacity="1">
<use xlink:href="#glyph-0-0" x="30" y="30"/>
<use xlink:href="#glyph-0-1" x="37" y="30"/>
<use xlink:href="#glyph-0-2" x="44" y="30"/>
<use xlink:href="#glyph-0-3" x="54" y="30"/>
<use xlink:href="#glyph-0-4" x="61" y="30"/>
<use xlink:href="#glyph-0-5" x="68" y="30"/>
</g>
</svg>
