<?xml version="1.0" encoding="UTF-8"?>
<svg xmlns="http://www.w3.org/2000/svg" xmlns:xlink="http://www.w3.org/1999/xlink" width="1920" height="1080" viewBox="0 0 1920 1080">
<defs>
<g>
<g id="glyph-0-0">
<path d="M 0.398438 -0.148438 C 1.984375 -1.796875 3.0625 -3.011719 3.632812 -3.78125 C 4.203125 -4.554688 4.484375 -5.308594 4.484375 -6.042969 C 4.484375 -6.683594 4.3125 -7.171875 3.964844 -7.507812 C 3.617188 -7.84375 3.203125 -8.015625 2.722656 -8.015625 C 2.128906 -8.015625 1.644531 -7.796875 1.277344 -7.363281 C 1.074219 -7.125 0.875 -6.757812 0.691406 -6.261719 L 0.410156 -6.320312 C 0.628906 -7.320312 0.996094 -8.011719 1.511719 -8.402344 C 2.03125 -8.789062 2.589844 -8.984375 3.183594 -8.984375 C 3.917969 -8.984375 4.511719 -8.753906 4.964844 -8.289062 C 5.417969 -7.828125 5.644531 -7.261719 5.644531 -6.59375 C 5.644531 -5.882812 5.398438 -5.199219 4.910156 -4.539062 C 4.417969 -3.878906 3.351562 -2.703125 1.710938 -1.015625 L 4.699219 -1.015625 C 5.117188 -1.015625 5.410156 -1.066406 5.578125 -1.164062 C 5.75 -1.265625 5.941406 -1.507812 6.152344 -1.894531 L 6.320312 -1.816406 L 5.597656 0 L 0.398438 0 Z "/>
</g>
<g id="glyph-0-1">
<path d="M 3.945312 -8.945312 C 3.960938 -8.921875 3.972656 -8.90625 3.972656 -8.894531 C 3.976562 -8.886719 3.976562 -8.859375 3.976562 -8.820312 L 3.976562 -0.984375 C 3.976562 -0.648438 4.066406 -0.4375 4.246094 -0.34375 C 4.421875 -0.253906 4.753906 -0.199219 5.242188 -0.183594 L 5.242188 0 L 1.570312 0 L 1.570312 -0.195312 C 2.09375 -0.222656 2.4375 -0.292969 2.597656 -0.410156 C 2.757812 -0.527344 2.839844 -0.78125 2.839844 -1.171875 L 2.839844 -7.199219 C 2.839844 -7.410156 2.8125 -7.566406 2.761719 -7.675781 C 2.707031 -7.785156 2.59375 -7.839844 2.421875 -7.839844 C 2.308594 -7.839844 2.164062 -7.808594 1.980469 -7.742188 C 1.800781 -7.679688 1.632812 -7.613281 1.476562 -7.546875 L 1.476562 -7.726562 L 3.867188 -8.945312 Z "/>
</g>
<g id="glyph-0-2">
<path d="M 0.996094 -1.191406 C 1.242188 -1.191406 1.566406 -1.050781 1.96875 -0.769531 C 2.371094 -0.492188 2.679688 -0.351562 2.898438 -0.351562 C 3.398438 -0.351562 3.832031 -0.570312 4.207031 -1.011719 C 4.578125 -1.453125 4.765625 -1.996094 4.765625 -2.636719 C 4.765625 -3.761719 4.167969 -4.570312 2.96875 -5.066406 C 2.304688 -5.339844 1.6875 -5.476562 1.113281 -5.476562 C 1.019531 -5.476562 0.957031 -5.476562 0.933594 -5.484375 C 0.910156 -5.492188 0.882812 -5.515625 0.847656 -5.554688 C 0.855469 -5.589844 0.863281 -5.617188 0.867188 -5.640625 C 0.875 -5.664062 0.882812 -5.6875 0.890625 -5.710938 L 2.3125 -8.820312 L 5.105469 -8.820312 C 5.242188 -8.820312 5.351562 -8.84375 5.425781 -8.894531 C 5.503906 -8.941406 5.601562 -9.03125 5.722656 -9.160156 L 5.828125 -9.070312 L 5.320312 -7.863281 C 5.300781 -7.824219 5.253906 -7.800781 5.175781 -7.789062 C 5.097656 -7.777344 5.011719 -7.773438 4.921875 -7.773438 L 2.402344 -7.773438 L 1.847656 -6.632812 C 2.558594 -6.511719 3.082031 -6.398438 3.410156 -6.289062 C 3.953125 -6.105469 4.40625 -5.835938 4.773438 -5.480469 C 5.085938 -5.171875 5.320312 -4.828125 5.480469 -4.441406 C 5.640625 -4.058594 5.722656 -3.652344 5.722656 -3.222656 C 5.722656 -2.261719 5.378906 -1.460938 4.695312 -0.820312 C 4.011719 -0.179688 3.148438 0.144531 2.101562 0.144531 C 1.675781 0.144531 1.335938 0.101562 1.074219 0.0195312 C 0.640625 -0.113281 0.421875 -0.355469 0.421875 -0.703125 C 0.421875 -0.832031 0.46875 -0.945312 0.5625 -1.042969 C 0.65625 -1.140625 0.800781 -1.191406 0.996094 -1.191406 Z "/>
</g>
<g id="glyph-0-3">
<rect x="0" y="0" width="0" height="0" mask="url(#mask-0)"/>
</g>
<g id="glyph-0-4">
<path d="M 3.328125 -8.820312 L 3.328125 -8.574219 C 3.0625 -8.566406 2.875 -8.542969 2.761719 -8.503906 C 2.5625 -8.429688 2.460938 -8.292969 2.460938 -8.097656 C 2.460938 -8.011719 2.472656 -7.925781 2.496094 -7.84375 C 2.519531 -7.761719 2.554688 -7.65625 2.605469 -7.527344 L 4.53125 -2.511719 L 5.949219 -6.277344 L 5.320312 -7.882812 C 5.203125 -8.179688 5.027344 -8.375 4.792969 -8.476562 C 4.652344 -8.539062 4.441406 -8.570312 4.160156 -8.574219 L 4.160156 -8.820312 L 7.726562 -8.820312 L 7.726562 -8.574219 C 7.394531 -8.570312 7.164062 -8.546875 7.039062 -8.503906 C 6.839844 -8.429688 6.738281 -8.277344 6.738281 -8.046875 C 6.738281 -7.96875 6.746094 -7.898438 6.765625 -7.839844 C 6.78125 -7.78125 6.824219 -7.664062 6.894531 -7.480469 L 8.820312 -2.480469 L 10.488281 -7.003906 C 10.582031 -7.261719 10.648438 -7.488281 10.683594 -7.6875 C 10.707031 -7.800781 10.714844 -7.894531 10.714844 -7.960938 C 10.714844 -8.210938 10.597656 -8.382812 10.363281 -8.476562 C 10.234375 -8.53125 10.039062 -8.566406 9.777344 -8.574219 L 9.777344 -8.820312 L 12.421875 -8.820312 L 12.421875 -8.574219 C 12.183594 -8.539062 12 -8.484375 11.875 -8.410156 C 11.648438 -8.285156 11.480469 -8.070312 11.367188 -7.761719 L 9.949219 -3.796875 L 9.394531 -2.265625 L 8.59375 0.15625 L 8.390625 0.15625 L 7.851562 -1.386719 L 6.261719 -5.488281 L 4.210938 0.15625 L 4.011719 0.15625 L 3.054688 -2.617188 L 1.90625 -5.734375 C 1.433594 -7.019531 1.105469 -7.808594 0.921875 -8.101562 C 0.738281 -8.394531 0.449219 -8.550781 0.0585938 -8.574219 L 0.0585938 -8.820312 Z "/>
</g>
<g id="glyph-0-5">
<path d="M 3.964844 -0.480469 C 4.644531 -0.480469 5.21875 -0.613281 5.675781 -0.878906 C 6.136719 -1.144531 6.367188 -1.652344 6.367188 -2.402344 C 6.367188 -3.148438 6.097656 -3.660156 5.558594 -3.933594 C 5.019531 -4.207031 4.335938 -4.34375 3.503906 -4.34375 C 3.300781 -4.34375 3.167969 -4.34375 3.113281 -4.34375 C 3.058594 -4.34375 2.976562 -4.34375 2.863281 -4.347656 L 2.863281 -1.027344 C 2.863281 -0.796875 2.929688 -0.648438 3.058594 -0.582031 C 3.191406 -0.515625 3.492188 -0.480469 3.964844 -0.480469 Z M 0.226562 -0.242188 C 0.765625 -0.273438 1.113281 -0.355469 1.273438 -0.492188 C 1.429688 -0.628906 1.511719 -0.945312 1.511719 -1.445312 L 1.511719 -7.375 C 1.511719 -7.867188 1.429688 -8.183594 1.273438 -8.324219 C 1.113281 -8.464844 0.765625 -8.546875 0.226562 -8.574219 L 0.226562 -8.820312 L 3.964844 -8.820312 C 5.03125 -8.820312 5.878906 -8.648438 6.507812 -8.308594 C 7.132812 -7.964844 7.449219 -7.375 7.449219 -6.535156 C 7.449219 -5.90625 7.230469 -5.429688 6.789062 -5.105469 C 6.542969 -4.917969 6.171875 -4.761719 5.675781 -4.640625 C 6.289062 -4.492188 6.8125 -4.246094 7.246094 -3.902344 C 7.679688 -3.558594 7.898438 -3.074219 7.898438 -2.453125 C 7.898438 -1.414062 7.414062 -0.695312 6.453125 -0.304688 C 5.945312 -0.101562 5.320312 0 4.578125 0 L 0.226562 0 Z M 4.132812 -4.875 C 4.582031 -4.882812 4.953125 -4.957031 5.246094 -5.089844 C 5.8125 -5.351562 6.09375 -5.816406 6.09375 -6.492188 C 6.09375 -7.285156 5.769531 -7.820312 5.117188 -8.097656 C 4.757812 -8.25 4.210938 -8.328125 3.476562 -8.328125 C 3.199219 -8.328125 3.027344 -8.304688 2.960938 -8.253906 C 2.898438 -8.207031 2.863281 -8.078125 2.863281 -7.863281 L 2.863281 -4.855469 Z "/>
</g>
<g id="glyph-0-6">
<path d="M 0.339844 -3.019531 C 0.339844 -3.882812 0.613281 -4.613281 1.160156 -5.210938 C 1.710938 -5.808594 2.417969 -6.105469 3.28125 -6.105469 C 4.140625 -6.105469 4.851562 -5.824219 5.417969 -5.261719 C 5.980469 -4.695312 6.261719 -3.945312 6.261719 -3.007812 C 6.261719 -2.144531 5.988281 -1.394531 5.441406 -0.753906 C 4.894531 -0.117188 4.1875 0.203125 3.320312 0.203125 C 2.488281 0.203125 1.78125 -0.105469 1.203125 -0.714844 C 0.625 -1.328125 0.339844 -2.097656 0.339844 -3.019531 Z M 3.097656 -5.714844 C 2.753906 -5.714844 2.457031 -5.601562 2.207031 -5.378906 C 1.773438 -4.984375 1.554688 -4.300781 1.554688 -3.332031 C 1.554688 -2.558594 1.730469 -1.839844 2.078125 -1.171875 C 2.429688 -0.503906 2.914062 -0.167969 3.535156 -0.167969 C 4.019531 -0.167969 4.394531 -0.394531 4.65625 -0.839844 C 4.921875 -1.285156 5.050781 -1.871094 5.050781 -2.597656 C 5.050781 -3.347656 4.886719 -4.054688 4.550781 -4.71875 C 4.214844 -5.382812 3.734375 -5.714844 3.097656 -5.714844 Z "/>
</g>
<g id="glyph-0-7">
<path d="M 0.242188 -0.183594 C 0.550781 -0.222656 0.765625 -0.296875 0.886719 -0.414062 C 1.011719 -0.527344 1.074219 -0.785156 1.074219 -1.183594 L 1.074219 -4.484375 C 1.074219 -4.761719 1.046875 -4.957031 0.996094 -5.070312 C 0.914062 -5.234375 0.746094 -5.320312 0.488281 -5.320312 C 0.449219 -5.320312 0.410156 -5.316406 0.367188 -5.3125 C 0.328125 -5.308594 0.277344 -5.300781 0.214844 -5.292969 L 0.214844 -5.519531 C 0.394531 -5.574219 0.8125 -5.707031 1.476562 -5.925781 L 2.089844 -6.125 C 2.121094 -6.125 2.136719 -6.117188 2.144531 -6.09375 C 2.152344 -6.070312 2.15625 -6.042969 2.15625 -6.003906 L 2.15625 -5.046875 C 2.554688 -5.417969 2.867188 -5.675781 3.09375 -5.8125 C 3.429688 -6.027344 3.78125 -6.132812 4.148438 -6.132812 C 4.441406 -6.132812 4.710938 -6.046875 4.953125 -5.878906 C 5.421875 -5.550781 5.65625 -4.960938 5.65625 -4.113281 L 5.65625 -1.074219 C 5.65625 -0.761719 5.71875 -0.535156 5.847656 -0.398438 C 5.972656 -0.257812 6.183594 -0.1875 6.476562 -0.183594 L 6.476562 0 L 3.699219 0 L 3.699219 -0.183594 C 4.015625 -0.226562 4.234375 -0.3125 4.363281 -0.445312 C 4.488281 -0.578125 4.550781 -0.867188 4.550781 -1.308594 L 4.550781 -4.089844 C 4.550781 -4.460938 4.480469 -4.769531 4.34375 -5.015625 C 4.203125 -5.261719 3.949219 -5.382812 3.574219 -5.382812 C 3.316406 -5.382812 3.058594 -5.296875 2.792969 -5.125 C 2.644531 -5.023438 2.453125 -4.859375 2.21875 -4.628906 L 2.21875 -0.984375 C 2.21875 -0.671875 2.289062 -0.460938 2.429688 -0.355469 C 2.566406 -0.25 2.785156 -0.191406 3.085938 -0.183594 L 3.085938 0 L 0.242188 0 Z "/>
</g>
<g id="glyph-0-8">
<path d="M 3.054688 -6.105469 C 3.664062 -6.105469 4.203125 -5.894531 4.660156 -5.472656 C 5.121094 -5.050781 5.351562 -4.449219 5.351562 -3.671875 L 1.21875 -3.671875 C 1.261719 -2.664062 1.488281 -1.929688 1.902344 -1.472656 C 2.3125 -1.011719 2.800781 -0.78125 3.367188 -0.78125 C 3.820312 -0.78125 4.207031 -0.902344 4.519531 -1.140625 C 4.832031 -1.378906 5.121094 -1.714844 5.382812 -2.15625 L 5.613281 -2.078125 C 5.433594 -1.527344 5.101562 -1.015625 4.613281 -0.546875 C 4.125 -0.078125 3.527344 0.15625 2.820312 0.15625 C 2.003906 0.15625 1.371094 -0.152344 0.925781 -0.769531 C 0.480469 -1.386719 0.261719 -2.09375 0.261719 -2.898438 C 0.261719 -3.769531 0.519531 -4.523438 1.035156 -5.15625 C 1.550781 -5.789062 2.222656 -6.105469 3.054688 -6.105469 Z M 2.675781 -5.632812 C 2.179688 -5.632812 1.804688 -5.414062 1.542969 -4.972656 C 1.402344 -4.738281 1.304688 -4.445312 1.242188 -4.089844 L 3.992188 -4.089844 C 3.945312 -4.523438 3.859375 -4.847656 3.742188 -5.058594 C 3.53125 -5.441406 3.175781 -5.632812 2.675781 -5.632812 Z "/>
</g>
<g id="glyph-0-9">
<path d="M 0.0585938 -0.214844 C 0.457031 -0.25 0.722656 -0.320312 0.851562 -0.425781 C 0.984375 -0.53125 1.046875 -0.757812 1.046875 -1.105469 L 1.046875 -4.042969 C 1.046875 -4.472656 1.007812 -4.78125 0.925781 -4.964844 C 0.847656 -5.148438 0.699219 -5.242188 0.488281 -5.242188 C 0.445312 -5.242188 0.386719 -5.234375 0.316406 -5.222656 C 0.246094 -5.214844 0.167969 -5.199219 0.0898438 -5.183594 L 0.0898438 -5.398438 C 0.339844 -5.484375 0.59375 -5.574219 0.851562 -5.664062 C 1.113281 -5.753906 1.292969 -5.820312 1.394531 -5.859375 C 1.609375 -5.941406 1.832031 -6.035156 2.0625 -6.140625 C 2.09375 -6.140625 2.113281 -6.128906 2.117188 -6.105469 C 2.125 -6.085938 2.128906 -6.039062 2.128906 -5.96875 L 2.128906 -4.902344 C 2.40625 -5.289062 2.675781 -5.589844 2.933594 -5.808594 C 3.191406 -6.023438 3.460938 -6.132812 3.738281 -6.132812 C 3.957031 -6.132812 4.136719 -6.066406 4.277344 -5.933594 C 4.417969 -5.800781 4.484375 -5.636719 4.484375 -5.4375 C 4.484375 -5.257812 4.433594 -5.109375 4.324219 -4.988281 C 4.21875 -4.867188 4.085938 -4.804688 3.925781 -4.804688 C 3.761719 -4.804688 3.59375 -4.878906 3.425781 -5.03125 C 3.261719 -5.183594 3.128906 -5.261719 3.035156 -5.261719 C 2.882812 -5.261719 2.695312 -5.136719 2.472656 -4.890625 C 2.253906 -4.648438 2.140625 -4.394531 2.140625 -4.132812 L 2.140625 -1.199219 C 2.140625 -0.824219 2.230469 -0.566406 2.402344 -0.417969 C 2.574219 -0.273438 2.863281 -0.207031 3.269531 -0.214844 L 3.269531 0 L 0.0585938 0 Z "/>
</g>
<g id="glyph-0-10">
<path d="M 2.742188 -1.027344 C 2.742188 -0.8125 2.792969 -0.667969 2.898438 -0.597656 C 3.007812 -0.527344 3.226562 -0.496094 3.5625 -0.496094 C 4.601562 -0.496094 5.460938 -0.699219 6.132812 -1.113281 C 7.164062 -1.746094 7.683594 -2.828125 7.683594 -4.363281 C 7.683594 -5.730469 7.257812 -6.757812 6.40625 -7.449219 C 5.675781 -8.039062 4.710938 -8.332031 3.507812 -8.332031 C 3.210938 -8.332031 3.007812 -8.300781 2.898438 -8.234375 C 2.792969 -8.171875 2.742188 -8.027344 2.742188 -7.804688 Z M 0.214844 -0.242188 C 0.699219 -0.292969 1.019531 -0.378906 1.164062 -0.503906 C 1.3125 -0.628906 1.386719 -0.941406 1.386719 -1.445312 L 1.386719 -7.375 C 1.386719 -7.863281 1.316406 -8.175781 1.171875 -8.3125 C 1.027344 -8.453125 0.710938 -8.539062 0.214844 -8.574219 L 0.214844 -8.820312 L 3.808594 -8.820312 C 5.019531 -8.820312 6.042969 -8.621094 6.882812 -8.222656 C 8.390625 -7.507812 9.148438 -6.226562 9.148438 -4.382812 C 9.148438 -3.71875 9.011719 -3.085938 8.738281 -2.488281 C 8.46875 -1.886719 8.058594 -1.382812 7.511719 -0.96875 C 7.164062 -0.710938 6.804688 -0.511719 6.433594 -0.378906 C 5.75 -0.125 4.914062 0 3.917969 0 L 0.214844 0 Z "/>
</g>
</g>
<image id="source-49" x="0" y="0" width="0" height="0"/>
<mask id="mask-0">
<use xlink:href="#source-49"/>
</mask>
</defs>
<g fill="rgb(28.627451%, 65.882353%, 56.078431%)" fill-opacity="1">
<use xlink:href="#glyph-0-0" x="30" y="30"/>
<use xlink:href="#glyph-0-1" x="37" y="30"/>
<use xlink:href="#glyph-0-2" x="44" y="30"/>
<use xlink:href="#glyph-0-3" x="51" y="30"/>
<use xlink:href="#glyph-0-4" x="54" y="30"/>
<use xlink:href="#glyph-0-3" x="66" y="30"/>
<use xlink:href="#glyph-0-5" x="69" y="30"/>
<use xlink:href="#glyph-0-6" x="78" y="30"/>
<use xlink:href="#glyph-0-7" x="85" y="30"/>
<use xlink:href="#glyph-0-7" x="92" y="30"/>
<use xlink:href="#glyph-0-8" x="99" y="30"/>
<use xlink:href="#glyph-0-9" x="105" y="30"/>
<use xlink:href="#glyph-0-3" x="109" y="30"/>
<use xlink:href="#glyph-0-10" x="112" y="30"/>
<use xlink:href="#glyph-0-9" x="122" y="30"/>
</g>
</svg>
