<?xml version="1.0" encoding="UTF-8"?>
<svg xmlns="http://www.w3.org/2000/svg" xmlns:xlink="http://www.w3.org/1999/xlink" width="1920" height="1080" viewBox="0 0 1920 1080">
<defs>
<g>
<g id="glyph-0-0">
<path d="M 0.148438 -0.242188 C 0.699219 -0.296875 1.054688 -0.421875 1.210938 -0.613281 C 1.367188 -0.808594 1.445312 -1.257812 1.445312 -1.960938 L 1.445312 -7.839844 L 1.261719 -8.054688 C 1.066406 -8.285156 0.902344 -8.425781 0.765625 -8.480469 C 0.628906 -8.535156 0.421875 -8.566406 0.148438 -8.574219 L 0.148438 -8.820312 L 2.433594 -8.820312 L 7.570312 -2.402344 L 7.570312 -6.863281 C 7.570312 -7.597656 7.464844 -8.074219 7.246094 -8.292969 C 7.101562 -8.4375 6.785156 -8.53125 6.296875 -8.574219 L 6.296875 -8.820312 L 9.425781 -8.820312 L 9.425781 -8.574219 C 8.917969 -8.523438 8.582031 -8.398438 8.410156 -8.203125 C 8.242188 -8.007812 8.15625 -7.5625 8.15625 -6.863281 L 8.15625 0.15625 L 7.929688 0.15625 L 2.03125 -7.15625 L 2.03125 -1.960938 C 2.03125 -1.230469 2.136719 -0.753906 2.351562 -0.535156 C 2.488281 -0.390625 2.800781 -0.292969 3.28125 -0.242188 L 3.28125 0 L 0.148438 0 Z "/>
</g>
<g id="glyph-0-1">
<path d="M 3.820312 -3.605469 C 3.320312 -3.441406 2.910156 -3.257812 2.585938 -3.058594 C 1.960938 -2.671875 1.648438 -2.234375 1.648438 -1.746094 C 1.648438 -1.351562 1.777344 -1.058594 2.039062 -0.871094 C 2.207031 -0.75 2.394531 -0.691406 2.605469 -0.691406 C 2.890625 -0.691406 3.164062 -0.769531 3.425781 -0.929688 C 3.691406 -1.089844 3.820312 -1.296875 3.820312 -1.542969 Z M 0.488281 -1.296875 C 0.488281 -1.925781 0.804688 -2.449219 1.433594 -2.871094 C 1.832031 -3.132812 2.628906 -3.484375 3.820312 -3.933594 L 3.820312 -4.484375 C 3.820312 -4.929688 3.777344 -5.238281 3.691406 -5.410156 C 3.542969 -5.699219 3.238281 -5.847656 2.773438 -5.847656 C 2.550781 -5.847656 2.339844 -5.789062 2.140625 -5.675781 C 1.941406 -5.558594 1.84375 -5.398438 1.84375 -5.195312 C 1.84375 -5.144531 1.851562 -5.054688 1.875 -4.929688 C 1.898438 -4.808594 1.90625 -4.730469 1.90625 -4.695312 C 1.90625 -4.453125 1.828125 -4.28125 1.667969 -4.1875 C 1.574219 -4.128906 1.46875 -4.101562 1.339844 -4.101562 C 1.144531 -4.101562 0.996094 -4.164062 0.890625 -4.292969 C 0.789062 -4.421875 0.734375 -4.5625 0.734375 -4.71875 C 0.734375 -5.023438 0.921875 -5.339844 1.296875 -5.671875 C 1.671875 -6.003906 2.222656 -6.171875 2.949219 -6.171875 C 3.792969 -6.171875 4.363281 -5.898438 4.660156 -5.351562 C 4.820312 -5.050781 4.902344 -4.617188 4.902344 -4.042969 L 4.902344 -1.433594 C 4.902344 -1.179688 4.917969 -1.007812 4.953125 -0.910156 C 5.011719 -0.742188 5.128906 -0.65625 5.304688 -0.65625 C 5.40625 -0.65625 5.488281 -0.671875 5.554688 -0.703125 C 5.617188 -0.734375 5.730469 -0.808594 5.890625 -0.925781 L 5.890625 -0.585938 C 5.753906 -0.417969 5.601562 -0.277344 5.441406 -0.167969 C 5.199219 -0.00390625 4.953125 0.078125 4.699219 0.078125 C 4.40625 0.078125 4.191406 -0.015625 4.058594 -0.207031 C 3.925781 -0.398438 3.855469 -0.628906 3.839844 -0.890625 C 3.511719 -0.605469 3.230469 -0.394531 2.996094 -0.253906 C 2.601562 -0.0195312 2.222656 0.0976562 1.867188 0.0976562 C 1.496094 0.0976562 1.171875 -0.0351562 0.898438 -0.296875 C 0.625 -0.558594 0.488281 -0.890625 0.488281 -1.296875 Z "/>
</g>
</g>
</defs>
<g fill="rgb(100%, 100%, 100%)" fill-opacity="1">
<use xlink:href="#glyph-0-0" x="30" y="30"/>
<use xlink:href="#glyph-0-1" x="40" y="30"/>
<use xlink:href="#glyph-0-0" x="46" y="30"/>
</g>
</svg>
